<svg version="1.2" baseProfile="tiny" xmlns="http://www.w3.org/2000/svg" viewBox="0 0 141.352 56.595"><g fill="#FFF"><path d="M19.482 22.126c1.003.022 14.471.25 14.471.25s13.723 1.865 16.301-9.093c.817-3.479.482-5.906-.426-7.59-1.789-3.314-6.334-3.375-8.158-3.225-5.273.436-9.337 3.811-12.019 7.393-2.19 2.922-4.031 5.986-5.565 8.924 1.138-.033 2.285-.111 3.416-.123 3.46-6.438 8.104-11.909 13.471-12.553 4.581-.549 7.43 5.426 2.72 10.391-3.481 3.588-9.94 3.053-11.536 3.084-1.821.037-13.098.176-13.098.176s-4.436.578-3.854-3.611c.583-4.191 5.477-4.979 6.761-3.435 1.28 1.545.061 4.267.061 4.267s1.881-1.205 1.747-4.548c-.133-3.342-5.027-3.403-7.592-1.354-2.564 2.048-3.042 3.902-3.319 4.875-.277.973-1.368 6 6.619 6.172zM34.616 23.799s-16.54-.424-18.63-.48c-10.571-.288-12.575 6.357-12.88 7.65-.306 1.289-.942 3.746 1.014 6.592s8.399 3.08 10.858-1.283c2.457-4.365.818-6.062.818-6.062s-.263 3.639-2.995 5.578c-2.733 1.938-8.6.594-6.497-4.928 2.102-5.521 7.719-4.795 7.719-4.795s14.535.9 17.018 1.073c4.537.316 12.709 1.992 10.613 12.025-1.561 7.48-7.415 10.434-12.631 10.436-6.9 0-8.839-4.51-8.032-11.633.29-2.553 1.178-6.193 2.559-10.095-1.107-.148-2.205-.281-3.339-.33a96.74 96.74 0 0 0-2.221 6.322c-5.492 17.367 3.544 19.93 9.063 20.217 3.391.178 17.338.449 20.897-14.787 3.633-15.545-13.334-15.5-13.334-15.5zM61.916 19.752c.369 0 .659.132.865.397.205.264.269.581.189.954l-.014.028a1.634 1.634 0 0 1-.572.939c-.324.264-.67.396-1.041.396h-.837c-.921 0-1.771.322-2.554.969-.771.646-1.262 1.428-1.467 2.348l-1.848 8.656a1.61 1.61 0 0 1-.587.939c-.323.264-.665.395-1.026.395h-.044c-.362 0-.646-.131-.852-.395-.215-.254-.283-.568-.206-.939l1.85-8.656c.372-1.674 1.261-3.097 2.67-4.268 1.419-1.175 2.964-1.764 4.638-1.764h.836zM94.873 22.1c1.231 1.566 1.612 3.454 1.144 5.664l-1.424 6.675a1.618 1.618 0 0 1-.586.939c-.322.264-.667.395-1.026.395h-.045c-.362 0-.646-.131-.853-.395-.215-.254-.282-.568-.204-.939l.147-.676c-1.802 1.34-3.708 2.01-5.724 2.01-2.209 0-3.929-.781-5.162-2.348-1.232-1.564-1.614-3.451-1.145-5.662.471-2.21 1.653-4.098 3.552-5.664 1.896-1.563 3.95-2.348 6.159-2.348 2.212.001 3.934.786 5.167 2.349zm-9.83 1.922c-1.243 1.039-2.021 2.285-2.334 3.742-.312 1.466-.062 2.718.748 3.755.812 1.027 1.953 1.541 3.42 1.541s2.825-.514 4.077-1.541c1.252-1.037 2.034-2.289 2.349-3.755.312-1.457.059-2.703-.764-3.742-.803-1.035-1.937-1.555-3.404-1.555-1.467 0-2.832.52-4.092 1.555zM102.688 13.74c.362 0 .65.126.864.38.207.264.271.582.191.953l-.997 4.68h2.641c.361 0 .645.132.851.397.216.264.282.581.204.954l-.013.028a1.619 1.619 0 0 1-.585.939c-.326.264-.665.396-1.03.396h-2.64l-1.95 9.138c-.081.404-.011.746.204 1.029.224.283.545.426.952.426h1.175c.362 0 .651.131.867.396.203.264.269.582.189.953l-.016.029a1.599 1.599 0 0 1-.586.939c-.322.264-.665.395-1.026.395h-1.174c-1.155 0-2.055-.404-2.701-1.217-.645-.822-.843-1.805-.601-2.951l3.521-16.533c.077-.371.277-.689.601-.953.314-.254.651-.38 1.013-.38h.046zM111.432 13.74c.361 0 .65.126.865.38.205.264.27.582.19.953l-1.276 5.986c1.35-.87 2.758-1.307 4.225-1.307 1.829 0 3.258.652 4.283 1.951 1.028 1.302 1.346 2.873.955 4.71l-1.717 8.026a1.618 1.618 0 0 1-.586.939 1.56 1.56 0 0 1-1.028.395h-.028c-.372 0-.66-.131-.865-.395-.216-.254-.283-.568-.206-.939l1.717-8.026c.226-1.085.037-2.014-.556-2.786-.607-.773-1.454-1.16-2.541-1.16-1.093 0-2.111.387-3.051 1.16-.928.772-1.506 1.701-1.73 2.786l-1.718 8.026a1.599 1.599 0 0 1-.586.939c-.324.264-.666.395-1.026.395h-.045c-.361 0-.645-.131-.851-.395-.216-.254-.284-.568-.204-.939l4.121-19.367c.078-.371.278-.689.602-.953.313-.254.65-.38 1.012-.38h.044zM76.977 22.1c-1.23-1.563-2.953-2.348-5.163-2.348s-4.264.785-6.164 2.348c-1.896 1.566-3.08 3.454-3.548 5.664-.472 2.21-.089 4.097 1.143 5.662 1.232 1.566 2.954 2.348 5.165 2.348 2.21 0 4.264-.781 6.162-2.348.315-.26.599-.533.87-.814l-.001-.002a1.212 1.212 0 0 0-.852-2.072c-.298 0-.566.113-.778.291l-.01-.006a7.154 7.154 0 0 1-.757.725c-1.241 1.039-2.596 1.557-4.062 1.557-1.468 0-2.612-.518-3.435-1.557a4.094 4.094 0 0 1-.864-2.426H76.52c.363 0 .706-.133 1.029-.396.312-.253.508-.566.587-.939l.015-.029c.022-.112.028-.217.025-.32.365-2.068-.028-3.852-1.199-5.338zm-9.829 1.952c1.251-1.036 2.611-1.555 4.078-1.555s2.606.519 3.42 1.555c.538.688.819 1.476.86 2.354H65.278c.418-.878 1.037-1.665 1.87-2.354zM137.134 22.1c-1.231-1.563-2.953-2.348-5.163-2.348-2.211 0-4.264.784-6.162 2.348-1.898 1.566-3.082 3.454-3.551 5.664-.47 2.21-.087 4.097 1.144 5.662 1.233 1.566 2.954 2.348 5.165 2.348 2.212 0 4.263-.781 6.162-2.348.316-.26.6-.533.871-.814 0 0 0-.002-.003-.002a1.212 1.212 0 0 0-.849-2.072c-.299 0-.567.113-.779.291a.067.067 0 0 0-.012-.006 7.025 7.025 0 0 1-.754.725c-1.242 1.039-2.598 1.557-4.064 1.557-1.469 0-2.612-.518-3.434-1.557a4.106 4.106 0 0 1-.863-2.426h11.836c.361 0 .705-.133 1.027-.396.312-.253.508-.566.586-.939l.014-.029c.025-.112.031-.217.026-.32.366-2.068-.026-3.852-1.197-5.338zm-9.829 1.952c1.252-1.036 2.612-1.555 4.078-1.555 1.468 0 2.607.519 3.417 1.555.54.688.823 1.476.866 2.354h-10.23c.418-.878 1.037-1.665 1.869-2.354z"/></g></svg>