<!-- Tab Speedo -->

<!-- Generator: Adobe Illustrator 22.1.0, SVG Export Plug-In  -->
<svg version="1.1"
	 xmlns="http://www.w3.org/2000/svg" xmlns:xlink="http://www.w3.org/1999/xlink" xmlns:a="http://ns.adobe.com/AdobeSVGViewerExtensions/3.0/"
	 x="0px" y="0px" width="35.8px" height="32.7px" viewBox="0 0 35.8 32.7" style="enable-background:new 0 0 35.8 32.7;"
	 xml:space="preserve">

<path class="st0" d="M18.6,3.8L18.6,3.8L18.6,3.8l0,2.7c0,0.3-0.2,0.5-0.4,0.6c-0.1,0-0.2,0.1-0.3,0.1h0c-0.4,0-0.7-0.3-0.7-0.7
	l0-2.7c0-0.4,0.3-0.7,0.7-0.7c0,0,0.1,0,0.1,0c0.1,0,0.1,0,0.2,0c0.1,0,0.1,0.1,0.2,0.1c0,0,0,0,0,0c0,0,0,0.1,0.1,0.1
	c0,0,0.1,0.1,0.1,0.1C18.6,3.6,18.6,3.7,18.6,3.8C18.6,3.8,18.6,3.8,18.6,3.8z M23.5,8.6c0.2,0,0.5-0.1,0.6-0.3L25.4,6
	c0.2-0.3,0.1-0.7-0.2-0.9C25.1,5.1,25,5,24.8,5c-0.2,0-0.5,0.1-0.6,0.3l-1.3,2.3c-0.2,0.3-0.1,0.7,0.2,0.9
	C23.3,8.6,23.4,8.6,23.5,8.6z M29.6,10.2l-2.3,1.3c-0.3,0.2-0.4,0.6-0.2,0.9c0.1,0.2,0.3,0.3,0.6,0.3c0.1,0,0.2,0,0.3-0.1l2.3-1.3
	c0.3-0.2,0.4-0.6,0.2-0.9C30.3,10.1,29.9,10,29.6,10.2z M28.4,17.7c0,0.4,0.3,0.7,0.7,0.7l2.7,0c0.4,0,0.7-0.3,0.7-0.7
	c0-0.4-0.3-0.7-0.7-0.7l-2.7,0C28.7,17,28.4,17.3,28.4,17.7z M27,23.4c0,0.2,0.2,0.3,0.3,0.4l2.3,1.3c0.1,0.1,0.2,0.1,0.3,0.1
	c0.2,0,0.5-0.1,0.6-0.3c0.2-0.3,0.1-0.7-0.2-0.9l-2.3-1.3c-0.1-0.1-0.2-0.1-0.3-0.1c-0.2,0-0.5,0.1-0.6,0.3
	C26.9,23.1,26.9,23.3,27,23.4z M8.2,22.6c-0.1,0-0.2,0-0.3,0.1L5.6,24c-0.3,0.2-0.4,0.6-0.2,0.9c0.1,0.2,0.3,0.3,0.6,0.3
	c0.1,0,0.2,0,0.3-0.1l2.3-1.3c0.3-0.2,0.4-0.6,0.2-0.9C8.7,22.7,8.5,22.6,8.2,22.6z M6.7,18.3c0.4,0,0.7-0.3,0.7-0.7
	c0-0.4-0.3-0.7-0.7-0.7l-2.7,0c-0.4,0-0.7,0.3-0.7,0.7c0,0.4,0.3,0.7,0.7,0.7L6.7,18.3z M8.6,11.5l-2.3-1.3
	c-0.1-0.1-0.2-0.1-0.3-0.1c-0.2,0-0.5,0.1-0.6,0.3c-0.2,0.3-0.1,0.7,0.2,0.9l2.3,1.3c0.1,0.1,0.2,0.1,0.3,0.1c0.2,0,0.5-0.1,0.6-0.3
	C9,12.1,8.9,11.7,8.6,11.5z M12.3,8.6c0.1,0,0.2,0,0.3-0.1c0.2-0.1,0.3-0.2,0.3-0.4c0-0.2,0-0.3-0.1-0.5l-1.3-2.3
	C11.5,5.1,11.2,5,11,5c-0.1,0-0.2,0-0.3,0.1c-0.3,0.2-0.4,0.6-0.2,0.9l1.3,2.3C11.9,8.5,12.1,8.6,12.3,8.6z M32.1,28.9
	C32,28.9,32,28.9,32.1,28.9C32,28.9,32,28.9,32.1,28.9c-0.6,0.8-1.3,1.6-2,2.2c-0.6,0.5-1.2,1.1-1.9,1.5c-0.1,0.1-0.2,0.1-0.4,0.1
	H8.1c-0.1,0-0.3,0-0.4-0.1c-0.7-0.5-1.3-1-1.9-1.5c-0.7-0.7-1.4-1.4-2-2.2c0,0,0,0,0,0c0,0,0,0,0-0.1c0,0,0,0,0-0.1c0,0,0-0.1,0-0.1
	c0,0,0-0.1,0-0.1c0,0,0-0.1,0-0.1c0,0,0-0.1,0-0.1c0,0,0-0.1,0.1-0.1c0,0,0.1-0.1,0.1-0.1c0,0,0,0,0-0.1c0,0,0,0,0.1,0
	c0,0,0,0,0.1,0c4.3-2.2,9-3.3,13.9-3.3c3.2,0,6.3,0.5,9.3,1.4c1.4,0.4,2.8,1,4.1,1.6c2.1-2.8,3.2-6.2,3.2-9.7
	c0-9.1-7.4-16.6-16.6-16.6C8.8,1.3,1.3,8.8,1.3,17.9c0,2.1,0.4,4.2,1.2,6.2c0.1,0.3,0.3,0.7,0.5,1.1c0.1,0.2,0.1,0.3,0,0.5
	C3,25.8,2.8,26,2.7,26c-0.3,0.2-0.7,0-0.9-0.3c-0.2-0.4-0.4-0.8-0.5-1.1C0.4,22.5,0,20.2,0,17.9C0,8,8,0,17.9,0
	c9.9,0,17.9,8,17.9,17.9C35.8,21.9,34.5,25.7,32.1,28.9z M5.3,28.7c0.4,0.5,0.9,1,1.4,1.4c0.5,0.5,1,0.9,1.6,1.3h19.3
	c0.6-0.4,1.1-0.8,1.6-1.3c0.5-0.4,0.9-0.9,1.4-1.4c-1.2-0.6-2.4-1-3.7-1.4c-2.9-0.9-5.9-1.4-8.9-1.4C13.5,25.9,9.3,26.8,5.3,28.7z
	 M15.9,8.7l4.7,8.9c0.1,0.2,0.3,0.8,0.3,1.8c0,1.4-1.1,2.6-2.5,2.6h0c-1,0-1.8-0.5-2.3-1.2c-0.2-0.3-0.6-1.1-0.6-1.8L14.6,9
	c0-0.3,0.2-0.6,0.5-0.7C15.4,8.2,15.7,8.4,15.9,8.7z M16.9,19.7c0.4,0.6,0.7,0.9,1.4,0.9h0c0.3,0,0.6-0.1,0.9-0.4
	c0.2-0.2,0.3-0.6,0.4-0.9c0.1-0.5,0.1-0.8-0.4-1.6l-3-5.7l0.5,6.4C16.7,19,16.7,19.5,16.9,19.7z"/>
</svg>