<!-- Food Diary/ History Breakfast Coffee Icon -->

<!-- Generator: Adobe Illustrator 22.1.0, SVG Export Plug-In  -->
<svg version="1.1"
	 xmlns="http://www.w3.org/2000/svg" xmlns:xlink="http://www.w3.org/1999/xlink" xmlns:a="http://ns.adobe.com/AdobeSVGViewerExtensions/3.0/"
	 x="0px" y="0px" width="35.5px" height="25.7px" viewBox="0 0 35.5 25.7" style="enable-background:new 0 0 35.5 25.7;"
	 xml:space="preserve">


<path class="st0" d="M30.8,16.7h2c0.7,0,1.4-0.3,2-0.8c0.5-0.5,0.8-1.2,0.8-2c0-1.5-1.2-2.8-2.8-2.8h-0.5V9.2H13.4v2.6
	c0,0.9,0.1,1.8,0.4,2.6c-0.4,0-0.7,0-1.1,0c-2.1,0-4.2,0.4-6.1,1.2c-0.6,0.2-1,0.9-0.9,1.5l0.1,0.3c-1,0.5-1.9,1.2-2.7,1.9
	c-0.4,0.3-0.5,0.8-0.4,1.3l0.1,0.6c-0.8,0.6-1.5,1.2-2.2,1.9c-0.4,0.4-0.6,1.1-0.3,1.7c0.2,0.5,0.7,0.9,1.3,0.9h22.5
	c0.6,0,1.1-0.4,1.3-0.9c0.2-0.6,0.1-1.2-0.3-1.7c-0.4-0.4-0.9-0.8-1.3-1.2H31c0.5,0,1-0.2,1.3-0.6l0.9-0.9h1.1v-0.9h-6.4
	C29,18.8,30,17.9,30.8,16.7z M32.2,12h0.5c1,0,1.8,0.9,1.8,1.9c0,0.5-0.2,1-0.5,1.3c-0.3,0.3-0.8,0.5-1.3,0.5h-1.4
	c0-0.1,0.1-0.2,0.1-0.2C31.9,14.4,32.2,13.2,32.2,12L32.2,12z M1,24.4c-0.1-0.2,0-0.5,0.1-0.7c0.5-0.5,1.1-1,1.7-1.5l0.4,2.4H1.4
	C1.2,24.7,1,24.6,1,24.4z M3.5,20.5c0-0.2,0-0.3,0.1-0.4c0.7-0.6,1.5-1.2,2.3-1.6l1,6.3H4.2L3.5,20.5z M17.5,24.7H7.8L6.6,17
	c0-0.2,0.1-0.4,0.3-0.5c3.7-1.5,7.9-1.5,11.6,0c0.2,0.1,0.3,0.3,0.3,0.5L17.5,24.7L17.5,24.7z M21.2,24.7h-2.6l1-6.3
	c0.8,0.5,1.6,1,2.3,1.6c0.1,0.1,0.2,0.3,0.1,0.4L21.2,24.7L21.2,24.7z M24.3,24.4c-0.1,0.2-0.2,0.3-0.4,0.3h-1.7l0.4-2.3
	c0.6,0.4,1.1,0.9,1.6,1.4C24.4,24,24.4,24.2,24.3,24.4z M31.7,20.7C31.5,20.9,31.3,21,31,21h-8.2l0.1-0.4c0,0,0-0.1,0-0.1h9
	L31.7,20.7z M25.7,19.6h-3.1c-0.1-0.1-0.1-0.2-0.2-0.2c-0.8-0.7-1.7-1.4-2.7-1.9l0.1-0.3c0.1-0.7-0.3-1.3-0.9-1.5
	c-1.3-0.5-2.7-0.9-4.1-1c-0.3-0.9-0.5-1.8-0.5-2.7v-1.6h16.9v1.6c0,1.1-0.2,2.3-0.7,3.3C29.6,17.2,27.9,18.8,25.7,19.6z M20.6,3.1
	c0-0.6,0.3-1.2,0.9-1.6C21.8,1.2,22,1,22,0.6h0.9c0,0.6-0.3,1.2-0.9,1.6c-0.4,0.3-0.5,0.5-0.5,0.9c0,0.4,0.2,0.6,0.5,0.9
	c0.5,0.4,0.9,1,0.9,1.6c0,0.6-0.3,1.2-0.9,1.6c-0.4,0.3-0.5,0.5-0.5,0.9h-0.9c0-0.6,0.3-1.2,0.9-1.6C21.8,6.2,22,6,22,5.6
	c0-0.4-0.2-0.6-0.5-0.9C20.9,4.4,20.6,3.8,20.6,3.1z M25.9,5c0-0.4-0.2-0.6-0.5-0.9c-0.5-0.4-0.8-1-0.9-1.6c0-0.6,0.3-1.2,0.9-1.6
	c0.4-0.3,0.5-0.5,0.5-0.9h0.9c0,0.6-0.3,1.2-0.9,1.6c-0.4,0.3-0.5,0.5-0.5,0.9c0,0.4,0.2,0.6,0.5,0.9c0.5,0.4,0.8,1,0.9,1.6
	c0,0.6-0.3,1.2-0.9,1.6c-0.4,0.3-0.5,0.5-0.5,0.9h-0.9c0-0.6,0.3-1.2,0.9-1.6C25.7,5.6,25.9,5.4,25.9,5z"/>
</svg>