<!-- Menu - Help Icon -->

<!-- Generator: Adobe Illustrator 22.1.0, SVG Export Plug-In  -->
<svg version="1.1"
	 xmlns="http://www.w3.org/2000/svg" xmlns:xlink="http://www.w3.org/1999/xlink" xmlns:a="http://ns.adobe.com/AdobeSVGViewerExtensions/3.0/"
	 x="0px" y="0px" width="20.5px" height="20.5px" viewBox="0 0 20.5 20.5" style="enable-background:new 0 0 20.5 20.5;"
	 xml:space="preserve">

<path class="st0" d="M9.6,14.9c-0.1-0.1-0.2-0.3-0.2-0.5c0-0.2,0.1-0.4,0.2-0.5c0.1-0.1,0.3-0.2,0.5-0.2c0.2,0,0.4,0.1,0.5,0.2
	c0.1,0.1,0.2,0.3,0.2,0.5c0,0.2-0.1,0.4-0.2,0.5C10.3,15.1,9.9,15.1,9.6,14.9z M12.6,9.5c0.2-0.2,0.4-0.4,0.5-0.7
	c0.1-0.2,0.2-0.5,0.2-0.9c0-0.4-0.1-0.8-0.4-1.2c-0.2-0.4-0.6-0.7-1-0.9c-0.5-0.2-1-0.3-1.6-0.3c-0.6,0-1.2,0.1-1.7,0.4
	c-0.5,0.3-0.8,0.6-1.1,1C7.3,7.3,7.1,7.7,7.1,8c0,0.1,0.1,0.3,0.2,0.4c0.1,0.1,0.3,0.2,0.4,0.2C8,8.6,8.2,8.6,8.4,8
	C8.6,7.5,8.8,7.1,9,6.9c0.3-0.3,0.7-0.4,1.3-0.4c0.5,0,0.9,0.1,1.2,0.4C11.8,7.1,12,7.5,12,7.9c0,0.2-0.1,0.4-0.2,0.6
	c-0.1,0.2-0.2,0.3-0.4,0.5c-0.1,0.1-0.3,0.3-0.6,0.6c-0.3,0.3-0.6,0.5-0.8,0.7c-0.2,0.2-0.3,0.4-0.4,0.6c-0.1,0.2-0.2,0.5-0.2,0.9
	c0,0.2,0.1,0.4,0.2,0.5c0.1,0.1,0.2,0.2,0.4,0.2c0.3,0,0.5-0.1,0.5-0.5c0.1-0.2,0.1-0.4,0.1-0.5c0-0.1,0.1-0.2,0.1-0.3
	c0.1-0.1,0.1-0.2,0.2-0.3c0.1-0.1,0.2-0.2,0.4-0.4C12,10,12.4,9.7,12.6,9.5z M17.5,17.5c-1.9,1.9-4.5,3-7.3,3c-2.7,0-5.3-1.1-7.2-3
	c-1.9-1.9-3-4.5-3-7.2C0,7.5,1.1,4.9,3,3c1.9-1.9,4.5-3,7.2-3c2.7,0,5.3,1.1,7.2,3C21.5,7,21.5,13.5,17.5,17.5z M16.6,3.9
	c-1.7-1.7-3.9-2.6-6.3-2.6S5.6,2.2,3.9,3.9c-1.7,1.7-2.6,3.9-2.6,6.3s0.9,4.6,2.6,6.3c1.7,1.7,3.9,2.6,6.3,2.6
	c2.4,0,4.6-0.9,6.3-2.6C20.1,13.1,20.1,7.4,16.6,3.9z"/>
</svg>