<!-- Food Diary/ History Lunch Burger Icon -->

<!-- Generator: Adobe Illustrator 22.1.0, SVG Export Plug-In  -->
<svg version="1.1"
	 xmlns="http://www.w3.org/2000/svg" xmlns:xlink="http://www.w3.org/1999/xlink" xmlns:a="http://ns.adobe.com/AdobeSVGViewerExtensions/3.0/"
	 x="0px" y="0px" width="30.1px" height="20.1px" viewBox="0 0 30.1 20.1" style="enable-background:new 0 0 30.1 20.1;"
	 xml:space="preserve">

<path class="st0" d="M28.5,12.5c-0.1,0.5-0.2,0.8-0.6,1.1c0.8,0.5,1.1,1.6,0.3,2.4c-0.2,0.9-0.3,1.4-0.8,2.1
	c-1.2,1.6-3.2,2.1-4.8,2.1H7.8c-1.6,0-3.6-0.5-4.8-2.1c-0.5-0.7-0.7-1.2-0.8-2.1c-0.8-0.8-0.5-2.1,0.4-2.5c-0.4-0.3-0.6-0.8-0.8-1.4
	C-2,12.3,1.2,8.7,2.3,8.7V8.2c0-6.7,9.6-8.2,13-8.2c3.3,0,12.9,1.5,12.9,8.2v1C29.9,9.8,31.3,12.1,28.5,12.5z M16,0.9l0.1,0.2
	C16.5,2,16.8,3,17,3.8c0.2,0.9,0.1,1.6-0.2,1.9C16.5,6,16,5.8,15.4,5.2c-0.4-0.5-0.9-1.3-1.4-2.3c-0.3-0.7-0.6-1.3-0.7-1.9
	c-0.7,0.1-1.6,0.3-2.4,0.4c0.4,0.9,0.6,1.7,0.8,2.4c0.2,0.9,0.1,1.6-0.2,1.9c-0.3,0.3-0.8,0.1-1.4-0.6C9.8,4.7,9.3,3.9,8.8,2.9
	C8.7,2.6,8.6,2.3,8.5,2.1C5.5,3.1,2.9,5,2.9,8.2l0,0.3c5.5-0.2,11-0.1,16.6,0c2.6,0,5.2,0,8.1,0V8.2c0-3.2-2.8-5.1-5.9-6.2
	c0.3,0.7,0.5,1.3,0.6,1.8c0.2,0.9,0.1,1.6-0.2,1.9c-0.3,0.3-0.8,0.1-1.3-0.6c-0.4-0.5-0.9-1.3-1.4-2.3c-0.3-0.6-0.5-1.2-0.7-1.7
	C17.6,1,16.7,0.9,16,0.9z M14,0.9c0.1,0.5,0.4,1,0.6,1.5c0.4,0.9,0.9,1.6,1.3,2.1c0.3,0.4,0.5,0.6,0.6,0.5c0.1-0.1,0-0.5-0.1-1
	c-0.1-0.7-0.4-1.6-0.8-2.5c-0.1-0.2-0.3-0.5-0.4-0.7C14.9,0.9,14.5,0.9,14,0.9z M9.1,1.9C9.2,2,9.3,2.2,9.3,2.4
	c0.4,0.9,0.9,1.6,1.3,2.1c0.3,0.4,0.5,0.6,0.6,0.5c0.1-0.1,0.1-0.5-0.1-1c-0.1-0.7-0.4-1.6-0.8-2.5l0,0C9.9,1.6,9.5,1.7,9.1,1.9z
	 M19.4,1.4c0.1,0.4,0.3,0.7,0.4,1.1c0.4,0.9,0.9,1.6,1.3,2.1c0.3,0.4,0.5,0.6,0.6,0.5c0.1-0.1,0-0.5-0.1-1c-0.1-0.7-0.4-1.4-0.8-2.3
	C20.3,1.6,19.8,1.5,19.4,1.4z M28.2,10.1c-0.3-0.2-0.5-0.3-0.7-0.5H2.2c-0.9,0.2-2.7,2-0.1,1.6c0.9-0.1,2.3-0.5,3-0.8
	c1.7,1.1,4.2,1.2,6.4,0.2c1.4,0.6,3.3,2,6.2-0.3c2.6,0.9,4.5,0.5,6-0.2c0.4,0.1,1.5,0.8,2.2,1c0.6,0.2,1.4,0.4,2.1,0.4
	C30,11.7,29.6,10.9,28.2,10.1z M20.7,11.9l-1.5,1.5c1.6-0.1,7.4,0.2,8.4-0.6c-1.4-0.1-2.9-0.5-4.2-1.3
	C22.6,11.8,21.6,11.9,20.7,11.9z M17.9,11.5c-1.8,2-4.7,1.4-6.6,0c-0.2,0.1-0.5,0.4-0.7,0.4l4.7,2.1c0.5,0.2,1.1,0.2,1.5-0.2
	l2.2-2.2C18.6,11.7,18.3,11.6,17.9,11.5z M2.6,12.4C2.9,13,3.5,13,3.9,13.1l6.7,0.3l-2.4-1.1c-1,0-2.1-0.1-3.1-0.5
	C4.2,12,3.5,12.3,2.6,12.4z M27.2,14.2c-1.1,0.2-9.1,0.3-9.1,0.3c0,0.1-1.1,1-1.3,1.1H27C28.4,15.5,28.3,14.2,27.2,14.2z M3.5,15.5
	h11.7c-0.6-0.3-1.1-0.6-1.7-0.9c-3.3,0-6.6-0.2-9.9-0.4C2.1,14.1,1.9,15.5,3.5,15.5z M3,16.7c0.7,2,3.4,2.6,4.8,2.6h14.9
	c1.4,0,4-0.6,4.8-2.6C19.8,16.7,10.8,16.8,3,16.7z"/>
</svg>