<!-- Barcode Icon -->

<!-- Generator: Adobe Illustrator 22.1.0, SVG Export Plug-In  -->
<svg version="1.1"
	 xmlns="http://www.w3.org/2000/svg" xmlns:xlink="http://www.w3.org/1999/xlink" xmlns:a="http://ns.adobe.com/AdobeSVGViewerExtensions/3.0/"
	 x="0px" y="0px" width="53.1px" height="38px" viewBox="0 0 53.1 38" style="enable-background:new 0 0 53.1 38;"
	 xml:space="preserve">


<path d="M6.9,7.3h2.4v24H6.9V7.3z M44.6,31.4H47v-24h-2.4V31.4z M14.4,7.3H12v24h2.4V7.3z M18.9,7.3h-2.4V28h2.4V7.3z M23,7.3h-2.4
	V28H23V7.3z M27.5,7.3h-1.7V28h1.7V7.3z M31.8,7.3h-2.4V28h2.4V7.3z M38.2,7.3h-0.9V28h0.9V7.3z M35.2,7.3h-0.9V28h0.9V7.3z
	 M42.7,7.3h-2.4v24h2.4V7.3z M4,0C1.8,0,0,1.8,0,4v2.6h2.4V4c0-0.9,0.7-1.6,1.6-1.6h2.1V0H4z M6.1,38v-2.4H4c-0.9,0-1.6-0.7-1.6-1.6
	v-2.6H0V34c0,2.2,1.8,4,4,4H6.1z M47,0v2.4h2.1c0.9,0,1.6,0.7,1.6,1.6v2.6h2.4V4c0-2.2-1.8-4-4-4H47z M49.1,38c2.2,0,4-1.8,4-4v-2.6
	h-2.4V34c0,0.9-0.7,1.6-1.6,1.6H47V38H49.1z"/>
</svg>