<!-- Cheese Block -->

<!-- Generator: Adobe Illustrator 22.1.0, SVG Export Plug-In  -->
<!-- <svg version="1.1"
	 xmlns="http://www.w3.org/2000/svg" xmlns:xlink="http://www.w3.org/1999/xlink" xmlns:a="http://ns.adobe.com/AdobeSVGViewerExtensions/3.0/"
	 x="0px" y="0px" width="28.5px" height="26.3px" viewBox="0 0 28.5 26.3" style="enable-background:new 0 0 28.5 26.3;"
	 xml:space="preserve">

<path class="st0" d="M1.7,23.5v0.6c0,0.3-0.2,0.5-0.5,0.5H0.5c-0.3,0-0.5-0.2-0.5-0.5v-0.6C0,23.2,0.2,23,0.5,23h0.7
	C1.5,23,1.7,23.2,1.7,23.5z M13.9,24.7h-0.7c-0.3,0-0.5,0.2-0.5,0.5v0.6c0,0.3,0.2,0.5,0.5,0.5h0.7c0.3,0,0.5-0.2,0.5-0.5v-0.6
	C14.4,24.9,14.2,24.7,13.9,24.7z M22.1,7.7h0.7c0.3,0,0.5-0.2,0.5-0.5V6.5C23.3,6.3,23,6,22.7,6h-0.7c-0.3,0-0.5,0.2-0.5,0.5v0.6
	C21.6,7.4,21.8,7.7,22.1,7.7z M20.1,6.5h0.7c0.3,0,0.5-0.2,0.5-0.5V5.3c0-0.3-0.2-0.5-0.5-0.5h-0.7c-0.3,0-0.5,0.2-0.5,0.5v0.6
	C19.6,6.2,19.8,6.5,20.1,6.5z M6.5,18.4H5.9c-0.3,0-0.5,0.2-0.5,0.5v0.6c0,0.3,0.2,0.5,0.5,0.5h0.7C6.8,20,7,19.8,7,19.5v-0.6
	C7,18.6,6.8,18.4,6.5,18.4z M5.2,20.7H4.5c-0.3,0-0.5,0.2-0.5,0.5v0.6c0,0.3,0.2,0.5,0.5,0.5h0.7c0.3,0,0.5-0.2,0.5-0.5v-0.6
	C5.7,20.9,5.4,20.7,5.2,20.7z M28.4,21.8c-0.2,0.3-0.5,0.5-0.9,0.5c-0.1,0-0.1,0-0.2,0c-1.1,0-3.8-0.3-6.2-0.5
	c-1.8-0.2-3.4-0.4-3.9-0.4c-0.5,0-0.8,0.1-1,0.1c0,0.1,0,0.1,0,0.2c0,2.4-4.2,2.6-7.3,2.6c-3.1,0-7.3-0.3-7.3-2.6
	c0-2.8,3.2-5.3,6.9-5.5c0.1-1.4,0.1-3.6-0.1-4.7c-0.1-0.3-0.1-0.5-0.2-0.8c-0.2-1-0.5-1.9,0.1-2.5c0.3-0.3,0.7-0.5,1.3-0.6
	c0-0.5,0.1-1.3,0.7-2c0.1-0.1,0.2-0.2,0.4-0.4C12.9,2.8,15.8,0,17.8,0c2,0,4.9,2.8,7.2,5.3c0.2,0.2,0.3,0.3,0.4,0.4
	c0.7,0.7,0.8,1.5,0.7,1.9c0.7,0,1.1,0.2,1.4,0.6c0.6,0.6,0.3,1.5,0.1,2.5c-0.1,0.3-0.1,0.5-0.2,0.8c-0.3,1.6-0.1,5.5-0.1,6.2
	C27.8,18.5,28.9,20.8,28.4,21.8z M10.5,7.6c0.1,0,0.2,0,0.2,0c1,0.1,1.6,0.2,2.2,0.3c1,0.2,1.7,0.3,5,0.3c3.3,0,4-0.1,5-0.3
	C23.4,7.8,24,7.7,25,7.6c0,0,0,0,0.1,0c0-0.3,0-0.8-0.4-1.2c-0.1-0.1-0.2-0.2-0.4-0.4C23.1,4.7,19.6,1,17.8,1C16,1,12.5,4.7,11.3,6
	c-0.2,0.2-0.3,0.3-0.4,0.4C10.5,6.8,10.4,7.3,10.5,7.6z M15.1,21.7c0-2.3-3-4.5-6.3-4.5c-3.3,0-6.3,2.1-6.3,4.5
	c0,0.5,0.6,1.6,6.3,1.6C14.5,23.3,15.1,22.2,15.1,21.7z M26.5,18.2l-1.1-0.5c-0.3-0.1-0.4-0.4-0.2-0.7c0.1-0.3,0.4-0.4,0.7-0.2
	l0.4,0.2c-0.1-1.4-0.2-4.2,0.1-5.7c0.1-0.3,0.1-0.6,0.2-0.8c0.2-0.7,0.3-1.3,0.1-1.6c-0.1-0.1-0.4-0.3-1.6-0.2
	c-1,0.1-1.6,0.2-2.1,0.3c-1,0.2-1.7,0.3-4.8,0.3c0,0,0,0,0,0h-0.6c0,0,0,0,0,0c-3.1,0-3.8-0.1-4.8-0.3c-0.5-0.1-1.1-0.2-2.1-0.3
	C9.4,8.5,9,8.8,8.9,8.9c-0.2,0.2,0,0.9,0.1,1.6c0.1,0.3,0.1,0.6,0.2,0.8c0.2,1.2,0.2,3.2,0.1,4.9c3.1,0.2,5.8,2.1,6.5,4.3
	c0.3-0.1,0.7-0.1,1.2-0.1c0.5,0,2.2,0.2,4,0.4c2.4,0.3,5.3,0.6,6.2,0.5c0,0,0.1,0,0.1,0C27.7,21,27.3,19.7,26.5,18.2z"/>
</svg> -->


<svg  version="1.1"
	 xmlns="http://www.w3.org/2000/svg" xmlns:xlink="http://www.w3.org/1999/xlink" xmlns:a="http://ns.adobe.com/AdobeSVGViewerExtensions/3.0/"
	 x="0px" y="0px" width="38.043" height="32.001" viewBox="0 0 38.043 32.001" style="enable-background:new 0 0 28.5 26.3;"
	 xml:space="preserve">
          	<rect id="sugarrect" transform="rotate(65.185)" x="7.676" y="-13.749" width="9.3139" height="5.7083" style="fill:none"/>
          	<path id="sugarpath1" d="m2.4127 31.1h9.3134v-9.3132h-9.3134zm5.0372-2.2462c0.28841 0 0.52202 0.23379 0.52202 0.5222s-0.23379 0.52202-0.52202 0.52202c-0.28877 0-0.52238-0.23379-0.52238-0.52202 0-0.28841 0.23379-0.5222 0.52238-0.5222zm-1.5666-1.5666c0.28841 0 0.52202 0.23379 0.52202 0.5222 0 0.28841-0.23379 0.52202-0.52202 0.52202-0.28877 0-0.52202-0.23379-0.52202-0.52202-1.803e-4 -0.28841 0.23325-0.5222 0.52202-0.5222zm-1.5666 1.5666c0.28841 0 0.52202 0.23379 0.52202 0.5222s-0.23379 0.52202-0.52202 0.52202c-0.28823 0-0.52202-0.23379-0.52202-0.52202-1.803e-4 -0.28841 0.23361-0.5222 0.52202-0.5222z" style="fill:none"/>
          	<polygon id="sugarpoly" transform="matrix(.18025 0 0 .18025 -3.9409 -3.0723)" points="92.248 137.91 92.248 189.58 123.92 189.58 123.92 154.21 107.63 137.91" style="fill:none;stroke-width:5.5477"/>
          	<path id="sugarpath2" d="m13.558 12.45-3.9097-8.4534-8.4518 3.9095 3.9095 8.4534zm-1.5417-0.94544c0.25272-0.01784 0.47209 0.17286 0.49011 0.42576 0.01765 0.2529-0.17305 0.47209-0.42594 0.48993-0.25272 0.01784-0.47209-0.17268-0.49011-0.42558-0.01766-0.2529 0.17322-0.47227 0.42594-0.49011zm-1.4702-1.2775c0.25272-0.01785 0.47209 0.17304 0.48975 0.42594 0.01803 0.25272-0.17286 0.47227-0.42522 0.48993-0.25308 0.01784-0.47227-0.17286-0.49011-0.42558-0.01766-0.2529 0.1725-0.47245 0.42558-0.49029zm-1.2773 1.4703c0.2529-0.01765 0.47209 0.17286 0.48975 0.42576 0.018028 0.2529-0.1725 0.47227-0.42522 0.48993-0.2529 0.01784-0.47245-0.17268-0.49011-0.4254-0.018028-0.25326 0.17286-0.47263 0.42558-0.49029z" style="fill:none"/>
          	<path id="sugarpath3" d="m28.272 20.166v-0.0022l-6.1321 6.1321h7.6457l6.629-6.1081c-0.40665 0.0031-0.94219 0.0049-1.6499 0.0049-1.3914 0-3.447-0.0072-6.4928-0.02668z" style="fill:none"/>
          	<path id="sugarpath4" d="m22.079 12.684 6.5149 6.5214c0.01912 0.01912 0.03515 0.0402 0.05029 0.06165 2.6624 0.0164 6.1881 0.03084 7.8926 0.02071l-6.523-6.6038z" style="fill:none"/>
          	<path id="sugarpath5" d="m14.754 12.889 6.0526-2.7999-4.6657-10.09-6.8167 3.1528v1.803e-4l-9.3244 4.3131 4.6662 10.09zm0.87644-11.622 3.8384 8.3118-5.0386 2.3963-3.8389-8.3826zm-5.9825 2.7999 3.8389 8.3118-8.3104 3.9095-3.9095-8.3118z" style="fill:#757276"/>
          	<circle id="sugarcircle1" cx="4.3167" cy="29.376" r="1" style="fill:#757276"/>
          	<circle id="sugarcircle2" cx="5.8833" cy="27.809" r="1" style="fill:#757276"/>
          	<circle id="sugarcircle3" cx="7.4499" cy="29.376" r="1" style="fill:#757276"/>
          	<circle id="sugarcircle4" cx="9.3009" cy="12.155" r=".9" style="fill:#757276"/>
          	<circle id="sugarcircle5" cx="10.578" cy="10.685" r=".9" style="fill:#757276"/>
          	<circle id="sugarcircle6" cx="12.048" cy="11.962" r=".9" style="fill:#757276"/>
			<path id="sugarpath6" d="m30.522 11.916c-0.08472-0.0858-0.20008-0.13393-0.32049-0.13393h-9.0426c-0.13267 0-0.25109 0.0584-0.33347 0.14961-0.02668 0.01731-0.05245 0.03696-0.07535 0.05985l-7.2228 7.2226c-0.17611 0.17593-0.17611 0.46109-1.81e-4 0.63702l1.0327 1.0336h-13.049v11.116h17.785v-6.3743l1.4361 1.4377c0.02071 0.0209 0.0438 0.03984 0.06832 0.05624 0.0067 0.0043 0.01406 0.0072 0.02109 0.01119 0.01822 0.011 0.03658 0.02181 0.05624 0.03008 0.01062 0.0043 0.02219 0.0068 0.03318 0.01047 0.01693 0.0056 0.03352 0.0119 0.05101 0.01549 0.02903 0.0059 0.05876 9e-3 0.08905 9e-3h8.91c0.11302 0 0.22171-0.04254 0.30517-0.11915l7.6307-7.0312c0.08957-0.08291 0.14203-0.19882 0.14528-0.32085 0.0029-0.12221-0.04414-0.24028-0.13016-0.32716zm-18.796 19.113h-9.2426v-9.1716h9.2426zm6.5986 0h-5.5667v-9.1716h2.7024l2.8643 2.8672zm-3.7705-11.496 6.5148-6.5146 6.4979 6.5047-6.5148 6.5146zm15.231 6.6914h-7.5749l6.0613-6.0613 0.0708 0.0022c3.0458 0.01946 5.0306 0.02668 6.4221 0.02668 0.70786 0 1.1724-2e-3 1.5791-0.0049zm-1.1416-6.958c-0.01516-0.02147-0.03118-0.04236-0.05029-0.06165l-6.444-6.5214 7.864 0.0708 6.4523 6.4622c-1.7045 0.01009-5.1596-0.0043-7.822-0.02071z" style="fill:#757276"/>          	<circle id="sugarcircle7" cx="22.2" cy="20.516" r="1" style="fill:#757276"/>
          	<circle id="sugarcircle8" cx="23.156" cy="18.517" r="1" style="fill:#757276"/>
          	<circle id="sugarcircle9" cx="25.155" cy="19.473" r="1" style="fill:#757276"/>
          </svg>