<!-- Tab Silverware -->

<!-- Generator: Adobe Illustrator 22.1.0, SVG Export Plug-In  -->
<svg version="1.1"
	 xmlns="http://www.w3.org/2000/svg" xmlns:xlink="http://www.w3.org/1999/xlink" xmlns:a="http://ns.adobe.com/AdobeSVGViewerExtensions/3.0/"
	 x="0px" y="0px" width="31.7px" height="32.3px" viewBox="0 0 31.7 32.3" style="enable-background:new 0 0 31.7 32.3;"
	 xml:space="preserve">

<path class="st0" d="M18.4,22c-0.1,0-0.3-0.1-0.4-0.2l-3.4-3.4c-0.2-0.2-0.2-0.6,0-0.8c0.2-0.2,0.6-0.2,0.8,0l3,3
	C20.7,18.7,31.7,8.4,29,2c-5.3,5.3-15,15-15,15l-0.8-0.8c0,0,10.4-10.4,15.5-15.6c0.1-0.1,0.3-0.2,0.5-0.2c0.2,0,0.3,0.1,0.4,0.3
	c4.7,7.7-10.2,20.6-10.8,21.1C18.7,22,18.6,22,18.4,22z M7.2,31.8c3-2,9.1-11.9,9.3-12.4c0.2-0.3,0.1-0.6-0.2-0.7
	c-0.3-0.2-0.6-0.1-0.8,0.2c-0.1,0.1-6.2,10.2-9,12c-0.5,0.3-0.9,0.4-1.3,0.2c-1.1-0.4-1.9-2.2-2.2-3.2L14,17c0.2-0.2,0.2-0.6,0-0.8
	c-0.2-0.2-0.6-0.2-0.8,0L2.1,27.4C2,27.5,1.9,27.7,2,27.9c0.1,0.4,1,3.5,2.9,4.2c0.2,0.1,0.5,0.1,0.8,0.1
	C6.2,32.3,6.7,32.2,7.2,31.8z M6.6,28.8c0.3-0.3,0.3-0.8,0-1.1c-0.3-0.3-0.8-0.3-1.1,0c-0.3,0.3-0.3,0.8,0,1.1C5.6,28.9,5.8,29,6,29
	l0,0C6.2,29,6.4,28.9,6.6,28.8z M6,27.9c0.1,0,0.2,0,0.2,0.1c0.1,0.1,0.1,0.3,0,0.4c-0.1,0.1-0.3,0.1-0.4,0c-0.1-0.1-0.1-0.3,0-0.4
	C5.8,27.9,5.9,27.9,6,27.9L6,27.9z M31,31.1c0.4-0.4,0.7-1.2,0.7-2.1c0-1-0.3-1.9-0.9-2.4c0,0,0,0,0,0l-9.2-8.2
	c-0.2-0.2-0.6-0.2-0.8,0c-0.2,0.2-0.2,0.6,0,0.8l9.2,8.2c0.5,0.5,0.6,1.2,0.5,1.6c0,0.6-0.2,1.1-0.4,1.3c-0.4,0.4-2.1,0.7-2.9-0.2
	l-6.4-7.3c-0.2-0.2-0.5-0.2-0.8,0c-0.2,0.2-0.2,0.5-0.1,0.8l6.4,7.3c0,0,0,0,0,0c0.6,0.6,1.5,0.9,2.4,0.9
	C29.7,31.8,30.5,31.5,31,31.1z M11.2,14.7l3.3-3.3c0.6-0.6,0.9-1.5,0.8-2.4c-0.1-0.9-0.5-1.8-1.2-2.5c0,0,0,0,0,0L6.9,0.1
	C6.7-0.1,6.3,0,6.1,0.2C5.9,0.4,5.9,0.8,6.2,1l7.2,6.3c0.5,0.5,0.8,1.1,0.9,1.8c0.1,0.6-0.1,1.2-0.5,1.5l-3.3,3.3
	c-0.4,0.4-0.9,0.6-1.5,0.5c-0.6-0.1-1.3-0.4-1.8-0.9L1,6.4C0.8,6.2,0.4,6.2,0.2,6.4C0,6.6-0.1,6.9,0.1,7.1l6.1,7.1c0,0,0,0,0,0
	C7,15,7.9,15.4,8.8,15.5c0.1,0,0.2,0,0.3,0C9.9,15.5,10.6,15.2,11.2,14.7z M12.5,10.3c0.2-0.2,0.2-0.6,0-0.8L5,2.1
	c-0.2-0.2-0.6-0.2-0.8,0C4,2.3,4,2.6,4.3,2.8l7.5,7.5c0.1,0.1,0.2,0.2,0.4,0.2C12.3,10.5,12.4,10.4,12.5,10.3z M10.3,12.6
	c0.2-0.2,0.2-0.6,0-0.8L2.8,4.3C2.6,4.1,2.2,4.1,2,4.3C1.8,4.5,1.8,4.9,2,5.1l7.5,7.5c0.1,0.1,0.2,0.2,0.4,0.2
	C10,12.7,10.2,12.7,10.3,12.6z M15.4,15.6c0.2-0.2,0.2-0.6,0-0.8l-2.6-2.6c-0.2-0.2-0.6-0.2-0.8,0c-0.2,0.2-0.2,0.6,0,0.8l2.6,2.6
	c0.1,0.1,0.2,0.2,0.4,0.2C15.2,15.8,15.3,15.7,15.4,15.6z"/>
</svg>