<!-- Meat -->

<!-- Generator: Adobe Illustrator 22.1.0, SVG Export Plug-In  -->
<svg version="1.1"
	 xmlns="http://www.w3.org/2000/svg" xmlns:xlink="http://www.w3.org/1999/xlink" xmlns:a="http://ns.adobe.com/AdobeSVGViewerExtensions/3.0/"
	 x="0px" y="0px" width="30.927" height="29.909" viewBox="0 0 8.1828 7.9135" style="enable-background:new 0 0 23.2 22.4;"
	 xml:space="preserve">
            <path id="proteinpath1" d="m7.707 4.42c-0.14781 0.35031-0.39159 0.60078-0.74542 0.76589-0.26388 0.121-0.55175 0.12735-0.91582 0.13511-0.53093 0.011289-1.1871 0.0254-2.0645 0.40534-0.27235 0.11783-0.50306 0.18592-0.72708 0.21414-0.1016 0.013053-0.2032 0.019403-0.30233 0.019403-0.49001 0-0.95286-0.15346-1.4143-0.46849-0.4124-0.28187-0.73061-0.66746-0.94545-1.1458-0.14676-0.32738-0.22719-0.67628-0.23918-1.0379v-0.00953c-0.011642-0.37041 0.048684-0.73484 0.17921-1.0809 0.15487-0.41169 0.39476-0.77365 0.71367-1.0756 0.29175-0.27693 0.63148-0.48613 1.0086-0.6223 0.28928-0.10478 0.59161-0.15981 0.89783-0.16475h0.029634c0.28434 0 0.66499 0.059267 1.0996 0.17075 1.3586 0.34784 3.0755 1.7805 3.4668 2.8917 0.11077 0.33832 0.097014 0.67557-0.041275 1.003m0.081845 0.65405c-0.074437 0.53129-0.24977 0.93734-0.53552 1.2418-0.40323 0.42827-1.0396 0.64559-1.8923 0.64559-0.36619 0-0.79199 0.1136-1.3797 0.36795-0.27376 0.11853-0.50448 0.18662-0.72708 0.21414-0.1016 0.013053-0.20355 0.019756-0.30269 0.019756-0.49036 0-0.95286-0.15346-1.4136-0.46849-0.4124-0.28222-0.73096-0.66781-0.9458-1.1462-0.14676-0.32703-0.22719-0.67416-0.23918-1.0319v-0.26176l0.06597 0.11606c0.23636 0.41593 0.5461 0.75636 0.9197 1.0114 0.61736 0.42228 1.2824 0.59302 1.959 0.50836 0.25823-0.032456 0.52035-0.10901 0.82445-0.2406 0.81351-0.35243 1.4058-0.36513 1.929-0.37606 0.39194-0.0088195 0.72779-0.015875 1.059-0.16792 0.24165-0.11289 0.44944-0.26776 0.61772-0.46038l0.077612-0.089253zm0.38171-1.0051c-0.00106-0.020109-0.00247-0.035631-0.00353-0.04692 0.020816-0.24236-0.0074062-0.4819-0.084665-0.71861-0.47202-1.342-2.3837-2.7796-3.713-3.1203-0.4632-0.11889-0.87631-0.18133-1.1942-0.18133h-0.028222c-0.34502 0.0052917-0.6858 0.067381-1.0121 0.18521-0.42439 0.15346-0.80504 0.38841-1.1321 0.6985-0.35701 0.33832-0.62654 0.74437-0.80081 1.2072-0.121 0.32138-0.18803 0.66464-0.19897 1.0199l-0.0028222 1.8098c0.013406 0.40711 0.10407 0.80152 0.26988 1.1709 0.24165 0.53834 0.60114 0.97297 1.0686 1.2926 0.61701 0.42192 1.2827 0.59338 1.959 0.50836 0.25718-0.032103 0.51929-0.10866 0.82445-0.2406 0.54081-0.2346 0.92287-0.33902 1.239-0.33902 0.95356 0 1.6768-0.25471 2.1488-0.75636 0.51329-0.54575 0.72955-1.3596 0.66076-2.4892"
              style="fill:#757276;stroke-width:.35278" />
            <path id="proteinpath2" d="m3.881 3.08c-0.075848 0.3115-0.36477 0.52882-0.70274 0.52882-0.056797 0-0.11395-0.00635-0.17004-0.01905-0.19262-0.043392-0.35454-0.15699-0.4565-0.31997-0.095251-0.15416-0.12488-0.33444-0.083256-0.50765 0.085373-0.35525 0.4759-0.59973 0.86713-0.51259 0.19615 0.043745 0.36019 0.1584 0.46249 0.32279 0.095603 0.15346 0.12488 0.33373 0.082903 0.50765m0.21625-0.69462c-0.1524-0.24518-0.39582-0.41557-0.68475-0.48013-0.079728-0.017639-0.16087-0.026811-0.24201-0.026811-0.49389 0-0.93346 0.3369-1.0453 0.80116-0.064206 0.26564-0.01905 0.54152 0.127 0.77647 0.15205 0.24412 0.393 0.41416 0.67875 0.47837 0.079376 0.018344 0.16228 0.027517 0.24589 0.027517 0.50236 0 0.93275-0.32879 1.0471-0.79905 0.064559-0.2667 0.019756-0.54293-0.12665-0.77753"
              style="fill:#757276;stroke-width:.35278" />
          </svg>