<!-- Red Heart Exclamation Icon -->

<!-- Generator: Adobe Illustrator 22.1.0, SVG Export Plug-In  -->
<svg version="1.1"
	 xmlns="http://www.w3.org/2000/svg" xmlns:xlink="http://www.w3.org/1999/xlink" xmlns:a="http://ns.adobe.com/AdobeSVGViewerExtensions/3.0/"
	 x="0px" y="0px" width="36.5px" height="31.3px" viewBox="0 0 36.5 31.3" style="enable-background:new 0 0 36.5 31.3;"
	 xml:space="preserve">

<path class="st0" d="M36.5,9.5c0,3-1.6,6.1-4.7,9.2L19.1,30.9c-0.2,0.2-0.5,0.4-0.9,0.4c-0.4,0-0.7-0.1-0.9-0.4L4.6,18.7
	c-0.1-0.1-0.3-0.3-0.6-0.5c-0.2-0.2-0.6-0.7-1.1-1.3c-0.5-0.6-1-1.3-1.4-2c-0.4-0.7-0.8-1.5-1.1-2.5C0.2,11.4,0,10.4,0,9.5
	c0-3,0.9-5.3,2.6-7C4.3,0.8,6.7,0,9.7,0c0.8,0,1.7,0.1,2.6,0.4c0.9,0.3,1.7,0.7,2.4,1.2c0.8,0.5,1.4,1,1.9,1.4
	c0.5,0.4,1.1,0.9,1.5,1.4c0.5-0.5,1-1,1.5-1.4c0.5-0.4,1.2-0.9,1.9-1.4c0.8-0.5,1.6-0.9,2.4-1.2C25.1,0.1,25.9,0,26.8,0
	c3,0,5.4,0.8,7.1,2.5C35.6,4.2,36.5,6.5,36.5,9.5z M18.2,29l12.2-11.7c2.7-2.7,4.1-5.3,4.1-7.8c0-2.4-0.6-4.3-2-5.6
	c-1.3-1.3-3.2-2-5.8-2c-0.6,0-1.3,0.1-1.9,0.3c-0.7,0.2-1.4,0.6-2,1c-0.7,0.5-1.3,0.9-1.8,1.3c-0.5,0.4-0.9,0.8-1.4,1.2l-1.4,1.4
	l-1.4-1.4c-0.4-0.4-0.9-0.9-1.4-1.2c-0.5-0.4-1.1-0.8-1.8-1.3c-0.6-0.4-1.3-0.7-2-1C11,2.1,10.4,2,9.7,2C7.2,2,5.3,2.6,4,4
	C2.6,5.3,2,7.1,2,9.5c0,0.7,0.1,1.4,0.4,2.2c0.3,0.8,0.6,1.5,0.9,2.1c0.4,0.6,0.8,1.2,1.2,1.8c0.6,0.8,0.9,1.1,1,1.2
	c0.2,0.2,0.3,0.3,0.4,0.4L6,17.2L18.2,29z M18.2,26.2L29,15.9c2.3-2.3,3.5-4.5,3.5-6.3c0-1.9-0.4-3.2-1.4-4.1
	c-1-0.9-2.4-1.4-4.4-1.4c-0.4,0-0.8,0.1-1.3,0.2c-0.5,0.2-1.1,0.4-1.5,0.7c-0.6,0.4-1.2,0.8-1.6,1.2c-0.4,0.3-0.8,0.7-1.2,1.1
	l-2.8,2.8l-2.8-2.8c-0.4-0.4-0.8-0.8-1.2-1.1c-0.4-0.4-1-0.7-1.6-1.2c-0.5-0.3-1-0.5-1.5-0.7C10.6,4.1,10.1,4,9.7,4
	c-2,0-3.4,0.5-4.4,1.4C4.4,6.3,4,7.6,4,9.5c0,0.5,0.1,1,0.3,1.6c0.2,0.7,0.5,1.2,0.7,1.7c0.3,0.5,0.7,1,1.1,1.5c0.6,0.8,0.9,1,0.9,1
	c0.1,0.1,0.1,0.2,0.2,0.2l0.2,0.1L18.2,26.2z M17.7,18.9l-0.5-4.4v-2h2.3v2l-0.5,4.4H17.7z M17.2,21.4v-1.6h2.1v1.6H17.2z"/>
</svg>