<!-- Menu - Chart Icon -->

<!-- Generator: Adobe Illustrator 22.1.0, SVG Export Plug-In  -->
<svg version="1.1"
	 xmlns="http://www.w3.org/2000/svg" xmlns:xlink="http://www.w3.org/1999/xlink" xmlns:a="http://ns.adobe.com/AdobeSVGViewerExtensions/3.0/"
	 x="0px" y="0px" width="21.6px" height="19.7px" viewBox="0 0 21.6 19.7" style="enable-background:new 0 0 21.6 19.7;"
	 xml:space="preserve">
<path class="st0" d="M1,0v18.7h20.6v1H0.5H0v-0.5V0H1L1,0z M15.3,1.7l0.8,0.9c-0.7,0.6-1.8,1.6-2.7,2.3c-0.7,0.5-1.2,0.8-1.8,0.9
	c-0.6,0.1-1.3,0-2.4-0.1C6.7,5.2,2.7,8.2,2.7,8.2L3.3,9c0,0,3.6-2.7,5.8-2.3c1.2,0.2,2,0.3,2.7,0.1c0.7-0.1,1.3-0.5,2.2-1.1
	C15,5,16.1,4,16.9,3.4l0.9,0.9l1.8-3.9L15.3,1.7L15.3,1.7z M15.9,17.2h2V6.4h-2V17.2L15.9,17.2z M11.8,17.2h2v-5.5h-2V17.2
	L11.8,17.2z M8,17.2h2V9.8H8V17.2L8,17.2z M4.1,17.2h2v-5.5h-2V17.2z"/>
</svg>