<!-- Menu Flag Icon -->

<!-- Generator: Adobe Illustrator 22.1.0, SVG Export Plug-In  -->
<svg version="1.1"
	 xmlns="http://www.w3.org/2000/svg" xmlns:xlink="http://www.w3.org/1999/xlink" xmlns:a="http://ns.adobe.com/AdobeSVGViewerExtensions/3.0/"
	 x="0px" y="0px" width="18.3px" height="21.4px" viewBox="0 0 18.3 21.4" style="enable-background:new 0 0 18.3 21.4;"
	 xml:space="preserve">

<path class="st0" d="M18,3.8c-1.1-0.6-2.2-1-3.5-1c-1.5,0-3,0.5-4.5,0.9C8.6,4.2,7.2,4.6,5.9,4.6c-1,0-1.8-0.2-2.7-0.7V3.8
	C4,3.6,4.6,2.8,4.6,2c0-1.1-0.9-2-2-2c-1.1,0-2,0.9-2,2c0,0.9,0.6,1.6,1.4,1.9v13.7C0.9,17.8,0,19,0,19.7c0,0.9,1.2,1.7,2.7,1.7
	s2.7-0.7,2.7-1.7c0-0.8-0.9-1.9-2.1-2.2V5.1C4,5.5,4.9,5.7,5.9,5.7c1.5,0,3-0.5,4.5-0.9c1.5-0.4,2.8-0.9,4.2-0.9
	c1,0,1.8,0.2,2.7,0.7V13c-0.8-0.4-1.7-0.5-2.7-0.5c-1.5,0-3,0.5-4.5,0.9c-1.5,0.4-2.8,0.9-4.2,0.9c-0.5,0-1-0.1-1.5-0.2
	c-0.3-0.1-0.6,0.1-0.7,0.4c0,0.1,0,0.3,0,0.4C3.8,14.9,3.9,15,4.1,15c0.6,0.2,1.2,0.2,1.8,0.2c1.5,0,3.1-0.5,4.5-0.9
	c1.5-0.4,2.8-0.9,4.2-0.9c1.1,0,2,0.3,2.9,0.8c0.2,0.1,0.4,0.1,0.5,0c0.2-0.1,0.3-0.3,0.3-0.5V4.2C18.3,4.1,18.2,3.9,18,3.8z
	 M2.7,20.3c-1,0-1.6-0.4-1.6-0.6c0-0.2,0.4-0.8,1.1-1.1V19c0,0.3,0.2,0.5,0.5,0.5s0.5-0.2,0.5-0.5v-0.3c0.7,0.2,1.1,0.8,1.1,1.1
	C4.3,19.9,3.7,20.3,2.7,20.3z M2.7,1.1c0.5,0,0.9,0.4,0.9,0.9S3.2,2.8,2.7,2.8C2.2,2.8,1.8,2.4,1.8,2S2.2,1.1,2.7,1.1z"/>
</svg>