<!-- Weight Page Calendar Icon -->

<!-- Generator: Adobe Illustrator 22.1.0, SVG Export Plug-In  -->
<svg version="1.1"
	 xmlns="http://www.w3.org/2000/svg" xmlns:xlink="http://www.w3.org/1999/xlink" xmlns:a="http://ns.adobe.com/AdobeSVGViewerExtensions/3.0/"
	 x="0px" y="0px" width="30.3px" height="30.2px" viewBox="0 0 30.3 30.2" style="enable-background:new 0 0 30.3 30.2;"
	 xml:space="preserve">

<path class="st0" d="M30.3,4.9c0-1.5-1.1-2.8-2.3-2.8h-1.3v1.5H28c0.3,0,0.7,0.6,0.7,1.3v3.3H1.6V4.9c0-0.7,0.3-1.3,0.7-1.3h1.3V2.1
	H2.3C1,2.1,0,3.3,0,4.9v22.5c0,1.5,1.3,2.8,2.8,2.8h24.5c1.5,0,2.8-1.3,3-2.8L30.3,4.9z M27.4,28.7H2.9c-0.7,0-1.3-0.6-1.3-1.3V9.8
	h27.1v17.6C28.7,28.1,28.1,28.7,27.4,28.7z M7.7,4.9C7.7,5.3,7.4,5.7,6.9,5.7c-0.4,0-0.8-0.4-0.8-0.8V0.8C6.1,0.4,6.5,0,6.9,0
	s0.8,0.4,0.8,0.8L7.7,4.9z M24,4.9c0,0.4-0.4,0.8-0.8,0.8c-0.4,0-0.8-0.4-0.8-0.8V0.8c0-0.4,0.4-0.8,0.8-0.8C23.7,0,24,0.4,24,0.8
	V4.9z M19.9,2.1v1.6h-9.7V2.1H19.9z M26.1,12.3v1.5h-1.5v-1.5H26.1z M22,12.3v1.5h-1.6v-1.5H22z M17.9,12.3v1.5h-1.5v-1.5H17.9z
	 M13.8,12.3v1.5h-1.5v-1.5H13.8z M9.7,12.3v1.5H8.2v-1.5H9.7z M26.1,16.5V18h-1.5v-1.5H26.1z M22,16.5V18h-1.6v-1.5H22z M17.9,16.5
	V18h-1.5v-1.5H17.9z M13.8,16.5V18h-1.5v-1.5H13.8z M9.7,16.5V18H8.2v-1.5H9.7z M5.6,16.5V18H4.1v-1.5H5.6z M26.1,20.5v1.6h-1.5
	v-1.6H26.1z M22,20.5v1.6h-1.6v-1.6H22z M17.9,20.5v1.6h-1.5v-1.6H17.9z M13.8,20.5v1.6h-1.5v-1.6H13.8z M9.7,20.5v1.6H8.2v-1.6H9.7
	z M5.6,20.5v1.6H4.1v-1.6H5.6z M22,24.6v1.5h-1.6v-1.5H22z M17.9,24.6v1.5h-1.5v-1.5H17.9z M13.8,24.6v1.5h-1.5v-1.5H13.8z
	 M9.7,24.6v1.5H8.2v-1.5H9.7z M5.6,24.6v1.5H4.1v-1.5H5.6z"/>
</svg>