<!-- Tab Scale -->

<!-- Generator: Adobe Illustrator 22.1.0, SVG Export Plug-In  -->
<svg version="1.1"
	 xmlns="http://www.w3.org/2000/svg" xmlns:xlink="http://www.w3.org/1999/xlink" xmlns:a="http://ns.adobe.com/AdobeSVGViewerExtensions/3.0/"
	 x="0px" y="0px" width="32.4px" height="32.8px" viewBox="0 0 32.4 32.8" style="enable-background:new 0 0 32.4 32.8;"
	 xml:space="preserve">

<path class="st0" d="M27.1,2.2C25,1.4,20.8,0,16.2,0C11.6,0,7.4,1.4,5.3,2.2C4.1,2.7,0,4.4,0,5.8c0,0,0,0,0,0.1L2.7,30
	c0,1.6,1.3,2.9,2.9,2.9h21.3c1.6,0,2.9-1.3,2.9-2.8l2.7-24.1c0,0,0,0,0,0C32.4,4.4,28.4,2.7,27.1,2.2z M26.9,31.6H5.5
	c-0.9,0-1.7-0.7-1.7-1.7c0,0,0,0,0-0.1l-2.6-24c0.4-0.9,7.2-4.6,15-4.6c7.3,0,14.5,3.7,15,4.6l-2.6,24c0,0,0,0,0,0.1
	C28.5,30.9,27.8,31.6,26.9,31.6z M25.7,6.1c-0.3-0.2-0.7-0.3-1-0.5c0,0,0,0,0,0c0,0,0,0,0,0c-1.3-0.6-2.7-1-4.1-1.3c0,0,0,0-0.1,0
	c0,0,0,0-0.1,0c-1.4-0.3-2.8-0.4-4.2-0.4c-1.4,0-2.8,0.2-4.2,0.4c0,0,0,0-0.1,0c0,0,0,0-0.1,0C10.5,4.5,9.1,5,7.8,5.6c0,0,0,0,0,0
	c0,0,0,0,0,0C7.4,5.7,7.1,5.9,6.7,6.1C5.7,6.6,5,7.4,4.8,8.3c-0.1,0.5,0,1,0.2,1.4l2.1,3c0.4,0.6,1.1,0.9,1.9,0.9
	c0.5,0,0.9-0.1,1.4-0.3c1.8-0.9,3.8-1.4,5.8-1.4c2,0,4,0.5,5.8,1.4c0.4,0.2,0.9,0.3,1.4,0.3c0.8,0,1.5-0.3,1.9-0.9l2.1-3
	c0.3-0.4,0.4-0.9,0.3-1.4C27.4,7.4,26.7,6.6,25.7,6.1z M23.4,12.4c-0.3,0-0.6-0.1-0.8-0.2c-1.9-1-4.1-1.5-6.3-1.5
	c-0.7,0-1.4,0.1-2.1,0.2c-0.7-0.9-1.5-1.7-2.3-2.4c-0.2-0.1-0.4-0.2-0.6-0.1c-0.2,0.1-0.4,0.2-0.4,0.4c-0.3,1.1-0.5,2.2-0.6,3.3
	c-0.1,0.1-0.3,0.1-0.4,0.2c-0.3,0.1-0.5,0.2-0.8,0.2c-0.2,0-0.6,0-0.9-0.4L6.1,9C6,8.8,6,8.7,6,8.5c0.1-0.4,0.5-1,1.3-1.4
	C7.4,7.1,7.6,7,7.7,6.9l0.7,1.6C8.6,8.8,8.8,8.9,9,8.9c0.1,0,0.2,0,0.2-0.1c0.1-0.1,0.3-0.2,0.3-0.3c0.1-0.2,0.1-0.3,0-0.5L8.8,6.4
	c0.9-0.4,1.8-0.7,2.7-0.9L12,7.3c0.1,0.3,0.3,0.5,0.6,0.5c0,0,0.1,0,0.1,0c0.2,0,0.3-0.1,0.4-0.3c0.1-0.1,0.1-0.3,0.1-0.5l-0.4-1.8
	C13.7,5.1,14.6,5,15.6,5v1.8c0,0.3,0.3,0.6,0.6,0.6c0.3,0,0.6-0.3,0.6-0.6V5c0.9,0,1.9,0.1,2.8,0.3l-0.4,1.8
	c-0.1,0.3,0.1,0.7,0.5,0.7c0,0,0.1,0,0.1,0c0.3,0,0.5-0.2,0.6-0.5l0.4-1.8c0.9,0.2,1.8,0.5,2.7,0.9l-0.7,1.6c-0.1,0.3,0,0.7,0.3,0.8
	c0.1,0,0.2,0.1,0.2,0.1c0.2,0,0.5-0.1,0.6-0.4l0.7-1.6C24.8,7,25,7.1,25.1,7.2c0.8,0.4,1.2,1,1.3,1.4c0,0.2,0,0.3-0.1,0.4l-2.1,3
	C24,12.3,23.6,12.4,23.4,12.4z M11.8,10c0.4,0.3,0.7,0.7,1,1.1c-0.4,0.1-0.8,0.2-1.2,0.4C11.6,11,11.7,10.5,11.8,10z M11.4,16.2
	c-0.9-0.3-2.9-0.6-3.5-0.7c0,0,0,0-0.1,0c-0.7,0-1.5,0-2,0.6c-0.4,0.4-0.5,1.1-0.4,1.9c0.2,1.7,2.4,10.9,4.3,11.6
	c0.5,0.2,1.1,0.3,1.7,0.3c1.4,0,3-0.5,3.4-1.6c0.3-0.8-0.1-3.9-1.1-9.2C13.4,17.7,12.6,16.7,11.4,16.2z M6.7,16.9
	c0.2-0.2,0.6-0.2,1.1-0.2c0.8,0.1,2.5,0.3,3.2,0.6c0.8,0.3,1.3,1,1.5,2.1c1,5.2,1.3,8.1,1.1,8.6c-0.1,0.3-1,0.8-2.2,0.8
	c-0.5,0-0.9-0.1-1.2-0.2c-0.2-0.1-0.9-1.1-2.1-4.7c-0.8-2.5-1.4-5-1.5-5.9C6.5,17.2,6.7,17,6.7,16.9z M24.6,15.5
	C24.5,15.5,24.5,15.5,24.6,15.5c-0.7,0.1-2.7,0.3-3.6,0.7c-1.2,0.5-2,1.5-2.3,3c-1,5.3-1.4,8.4-1.1,9.2c0.4,1.1,2,1.6,3.4,1.6
	c0.6,0,1.2-0.1,1.7-0.3c1.9-0.8,4.2-10,4.4-11.6c0.1-0.9-0.1-1.5-0.4-1.9C26,15.5,25.3,15.5,24.6,15.5z M22.2,28.5
	c-0.3,0.1-0.8,0.2-1.2,0.2c-1.3,0-2.1-0.5-2.2-0.8c-0.2-0.4,0.1-3.3,1.1-8.6c0.2-1.1,0.7-1.7,1.5-2.1c0.6-0.3,2.3-0.5,3.2-0.6
	c0.4,0,0.9,0,1.1,0.2c0.1,0.1,0.2,0.3,0.1,1c-0.1,0.9-0.7,3.4-1.5,5.9C23.2,27.4,22.4,28.4,22.2,28.5z"/>
</svg>