<!-- Bread Loaf -->

<!-- Generator: Adobe Illustrator 22.1.0, SVG Export Plug-In  -->
<svg version="1.1"
	 xmlns="http://www.w3.org/2000/svg" xmlns:xlink="http://www.w3.org/1999/xlink" xmlns:a="http://ns.adobe.com/AdobeSVGViewerExtensions/3.0/"
	 x="0px" y="0px" width="40.804" height="27.933" viewBox="0 0 10.796 7.3906" style="enable-background:new 0 0 30.6 21;"
	 xml:space="preserve">

            <path id="carbpath1" d="m9.23 5.9c-1.4023 0.44062-2.8276 0.82735-4.2775 1.0756-0.34108-0.010862 0.005521-0.73923-0.071679-1.0655 0.025938-0.64562 0.029663-1.292 0.023383-1.938 1.7178-0.256 3.4356-0.512 5.1534-0.768-0.17087 0.87483-0.30214 1.7848-0.71812 2.5836l-0.040297 0.055044zm-8.121-0.082903c-0.15444-1.0218-0.18344-2.0593-0.34004-3.0806-0.27001-0.28469-0.57919-0.72487-0.2245-1.1017 0.37948-0.38977 0.98343-0.40296 1.4954-0.43488 0.9138-0.004378 1.9699 0.15597 2.5577 0.93482 0.34301 0.42757 0.50844 1.1893-0.020726 1.5427-0.13988 0.28989-0.0010583 0.65446-0.047063 0.97121-0.013173 0.78067-0.017748 1.5646-0.1138 2.3403-1.0732-0.30155-2.1737-0.56274-3.1738-1.067l-0.063087-0.040994zm4.8701-5.4134c1.3204 0.09466 2.6997 0.29205 3.8329 1.0225 0.42046 0.2489 0.83086 0.82124 0.45354 1.2814-0.10368 0.16984-0.34371 0.10453-0.51419 0.15882-1.524 0.22709-3.048 0.45418-4.572 0.68127 0.35788-0.81298-0.16948-1.7379-0.85929-2.1863-0.74597-0.46962-1.6657-0.56509-2.5288-0.5252 1.3387-0.46047 2.7871-0.50546 4.1879-0.43251zm4.7452 1.5032c-0.3536-0.78279-1.2215-1.1398-1.9827-1.4055-1.6509-0.50788-3.4095-0.58735-5.122-0.44141-1.1064 0.12895-2.2874 0.35155-3.1535 1.1025-0.4162 0.34723-0.64364 1.0051-0.27278 1.4671 0.40965 0.36676 0.23538 0.99237 0.34955 1.4878 0.072044 0.62142 0.087446 1.2542 0.22133 1.8657 0.30794 0.39763 0.84693 0.51037 1.2912 0.69877 0.77527 0.26756 1.5643 0.49795 2.3604 0.69341 0.80164 0.018346 1.5848-0.22788 2.3622-0.39596 0.89205-0.23581 1.7975-0.44664 2.6631-0.76481 0.44308-0.39587 0.54912-1.0262 0.71085-1.5725 0.12916-0.52039 0.22714-1.048 0.3137-1.577 0.29078-0.3016 0.4287-0.76173 0.25859-1.1582z"
              style="fill:#757276;stroke-width:.35278" />
            <path id="carbpath2" d="m2.2 1.91c-0.53554-0.0025514-0.26308 0.90078 0.18596 0.57384 0.22424-0.16601 0.11456-0.59269-0.18596-0.57384z"
              style="fill:#757276;stroke-width:.35278" />
            <path id="carbpath3" d="m3.37 3c-0.53584-0.0026007-0.26314 0.90127 0.18609 0.57416 0.22431-0.1661 0.11449-0.59296-0.18609-0.57416z"
              style="fill:#757276;stroke-width:.35278" />
            <path id="carbpath4" d="m2.68 3.65c-0.53554-0.0025514-0.26308 0.90078 0.18596 0.57384 0.22424-0.16601 0.11456-0.59269-0.18596-0.57384z"
              style="fill:#757276;stroke-width:.35278" />
            <path id="carbpath5" d="m3.91 5.31c-0.53583-0.0027893-0.26338 0.90077 0.18577 0.57384 0.2238-0.16596 0.1145-0.59248-0.18577-0.57384z"
              style="fill:#757276;stroke-width:.35278" />
            <path id="carbpath6" d="m1.75 4.77c-0.53578-0.0027074-0.26313 0.90081 0.18596 0.57384 0.22424-0.16601 0.11456-0.59269-0.18596-0.57384z"
              style="fill:#757276;stroke-width:.35278" />
          </svg>