<!-- Menu - Account Icon -->

<!-- Generator: Adobe Illustrator 22.1.0, SVG Export Plug-In  -->
<svg version="1.1"
	 xmlns="http://www.w3.org/2000/svg" xmlns:xlink="http://www.w3.org/1999/xlink" xmlns:a="http://ns.adobe.com/AdobeSVGViewerExtensions/3.0/"
	 x="0px" y="0px" width="18.1px" height="21.4px" viewBox="0 0 18.1 21.4" style="enable-background:new 0 0 18.1 21.4;"
	 xml:space="preserve">

<path class="st0" d="M9.1,11.5c2.6,0,4.8-4.1,4.8-6.7c0-2.6-2.1-4.8-4.8-4.8S4.3,2.1,4.3,4.8C4.3,7.4,6.4,11.5,9.1,11.5z M9.1,1.2
	c2,0,3.6,1.6,3.6,3.6c0,2.1-1.7,5.5-3.6,5.5c-1.8,0-3.6-3.5-3.6-5.5C5.5,2.8,7.1,1.2,9.1,1.2z M18.1,20.8c0,0.3-0.3,0.6-0.6,0.6
	c-0.3,0-0.6-0.3-0.6-0.6c0-4-3.5-7.3-7.9-7.3c-4.4,0-7.9,3.3-7.9,7.3c0,0.3-0.3,0.6-0.6,0.6c-0.3,0-0.6-0.3-0.6-0.6
	c0-4.7,4.1-8.5,9.1-8.5S18.1,16.1,18.1,20.8z"/>
</svg>