<!-- Flame -->

<!-- Generator: Adobe Illustrator 22.1.0, SVG Export Plug-In  -->
<svg version="1.1"
	 xmlns="http://www.w3.org/2000/svg" xmlns:xlink="http://www.w3.org/1999/xlink" xmlns:a="http://ns.adobe.com/AdobeSVGViewerExtensions/3.0/"
	 x="0px" y="0px" width="24.317" height="32.824" viewBox="0 0 6.434 8.6847" style="enable-background:new 0 0 18.2 24.6;"
	 xml:space="preserve">

            <path id="caloriespath1" d="m5.1657 7.46-0.3676 0.35842 0.1009-0.50342c0.023284-0.11501 0.034925-0.23354 0.034925-0.35243 0-0.18415-0.027164-0.34431-0.058914-0.53023l-0.013758-0.081492c-0.10336-0.37536-0.32068-0.8502-0.57785-1.2538-0.06597-0.10971-0.19473-0.13018-0.30939-0.061384-0.040922 0.024695-0.06985 0.058561-0.085373 0.10125l-0.14041 0.38488-0.15558-0.37853c-0.10442-0.254-0.15981-0.5327-0.15981-0.80646 0-0.15346-0.10689-0.2353-0.26388-0.21202-0.63253 0.14111-1.669 1.7734-1.669 2.8378 0 0.11748 0.011995 0.23636 0.035278 0.35243l0.1009 0.50306-0.3676-0.35807c-0.53905-0.52564-0.83609-1.2351-0.83609-1.9978 0-1.8256 1.5-4.0527 2.3396-4.7865l0.22754-0.19897 0.034572 0.30057c0.10936 0.95356 0.49918 1.8369 1.1275 2.5548 0.03422 0.033514 0.10442 0.058209 0.18062 0.058209 0.036689 0 0.10125-0.021167 0.11959-0.033867l0.024695-0.028222c0.17004-0.18627 0.32279-0.39758 0.44274-0.6089l0.14323-0.25259 0.13547 0.25682c0.28999 0.55034 0.52353 1.1462 0.67557 1.723 0.083256 0.41452 0.11783 0.71579 0.11783 1.0157 0 0.76271-0.29704 1.4718-0.83574 1.9978m-1.9484 0.7867c-0.72002 0-1.2845-0.5641-1.2845-1.2841 0-0.68722 0.47308-1.5212 0.87772-2.0264l0.19579-0.24377 0.081492 0.30163c0.095956 0.35419 0.26988 0.69321 0.51647 1.0079 0.028575 0.027164 0.099131 0.051859 0.17533 0.051859 0.033514 0 0.075495-0.017639 0.085373-0.028575l0.038806-0.047978c0.027164-0.022225 0.052564-0.046214 0.077259-0.071614l0.16298-0.16686 0.095251 0.21273c0.087842 0.19544 0.14781 0.36795 0.18274 0.52705l0.022931 0.11042c0.029986 0.14323 0.056092 0.26741 0.056092 0.37359 0 0.72002-0.56374 1.2841-1.2838 1.2841m3.1069-3.9187c-0.24201-0.8435-0.63536-1.7209-1.1035-2.4564-0.097014-0.16228-0.2152-0.11818-0.30904-0.061736-0.039511 0.021167-0.10125 0.057856-0.1136 0.1203-0.049742 0.24659-0.1591 0.49142-0.33585 0.7486l-0.13159 0.19121-0.13053-0.19191c-0.50201-0.73731-0.7673-1.5903-0.7673-2.4673 0-0.13723-0.07867-0.21625-0.21555-0.21625-0.26882 0-0.87948 0.2406-1.9498 1.8514-0.48366 0.77224-1.2675 2.2335-1.2675 3.6163 0 1.7741 1.4432 3.217 3.2174 3.217 1.7738 0 3.2166-1.4429 3.2166-3.217 0-0.34467-0.039159-0.74719-0.10971-1.1342"
              style="fill:#757276;stroke-width:.35278" />
          </svg>