<!-- Menu - Watch Icon -->

<!-- Generator: Adobe Illustrator 22.1.0, SVG Export Plug-In  -->
<svg version="1.1"
	 xmlns="http://www.w3.org/2000/svg" xmlns:xlink="http://www.w3.org/1999/xlink" xmlns:a="http://ns.adobe.com/AdobeSVGViewerExtensions/3.0/"
	 x="0px" y="0px" width="20px" height="24.2px" viewBox="0 0 20 24.2" style="enable-background:new 0 0 20 24.2;"
	 xml:space="preserve">

<path class="st0" d="M6.3,17.9v-1.1h1.1v1.1H6.3z M6,11.9c-0.5-0.5-0.8-1.1-0.8-1.9c0-0.7,0.3-1.4,0.8-1.9c0.5-0.5,1.1-0.8,1.9-0.8
	c0.9,0,1.4,0.4,1.7,0.7L10,8.4L10.4,8c0.3-0.3,0.8-0.7,1.7-0.7c0.7,0,1.4,0.3,1.9,0.8c0.5,0.4,0.8,1.1,0.8,1.8
	c0,0.7-0.3,1.3-0.8,1.9L11.9,14c-0.5,0.5-1.1,0.8-1.9,0.8S8.7,14.5,8.1,14L6,11.9z M6.3,10c0,0.4,0.1,0.8,0.5,1.1l2.1,2.1
	c0.3,0.3,0.7,0.5,1.1,0.5s0.8-0.2,1.1-0.5l2.1-2.1c0.3-0.3,0.5-0.7,0.5-1.1c0-0.4-0.1-0.8-0.5-1.1c-0.3-0.3-0.7-0.5-1.1-0.5
	c-0.5,0-0.8,0.2-1.2,0.5c-0.5,0.5-1.4,0.5-1.9,0c-0.6-0.6-1.5-0.6-2.2,0C6.5,9.2,6.3,9.6,6.3,10z M10.5,17.9v-1.1H9.5v1.1H10.5z
	 M13.7,17.9v-1.1h-1.1v1.1H13.7z M17.3,21.1h-0.5v3.1H3.2v-3.1H2.7c-1.5,0-2.7-1.1-2.7-2.7V5.8c0-1.5,1.1-2.7,2.7-2.7h0.5V0h13.7
	v3.2h0.5c1.5,0,2.7,1.1,2.7,2.7v12.6C20,19.9,18.9,21.1,17.3,21.1z M4.2,3.2h11.5v-2H4.2V3.2z M15.8,21.1H4.2v2h11.5V21.1z M17.3,20
	c0.9,0,1.6-0.6,1.6-1.5V5.8c0-0.9-0.6-1.6-1.6-1.6H2.7c-0.9,0-1.6,0.6-1.6,1.6v12.6c0,0.9,0.6,1.5,1.6,1.5H17.3z"/>
</svg>