<!-- Food Diary/ History Dinner Icon -->

<!-- Generator: Adobe Illustrator 22.1.0, SVG Export Plug-In  -->
<svg version="1.1"
	 xmlns="http://www.w3.org/2000/svg" xmlns:xlink="http://www.w3.org/1999/xlink" xmlns:a="http://ns.adobe.com/AdobeSVGViewerExtensions/3.0/"
	 x="0px" y="0px" width="35.8px" height="30.8px" viewBox="0 0 35.8 30.8" style="enable-background:new 0 0 35.8 30.8;"
	 xml:space="preserve">

<path class="st0" d="M35,24.5H31c0.2-1,0.3-2.9-0.8-5.3c0-0.1-0.1-0.1-0.1-0.2c0.5-1.2,1-2.8,1-5l1.9-1.9c0.4,0.2,0.8,0.3,1.2,0.2
	c0.6-0.1,1.2-0.4,1.5-1c0.4-0.6,0.4-1.4,0-2c-0.4-0.6-1-1-1.7-1c0-0.7-0.4-1.3-1-1.7c-0.6-0.4-1.4-0.4-2,0c-0.6,0.3-0.9,0.9-1,1.5
	c-0.1,0.4,0,0.8,0.2,1.2l-2.2,2.2c-1.8,0-3.3,0.4-4.4,0.9c-7.7-0.3-12.4,2.7-15.1,5.5c-0.1-0.1-0.2-0.3-0.2-0.5
	c-0.9-2.5-2.6-3.7-2.7-3.8c-0.2-0.1-0.4-0.1-0.5-0.1c-0.2,0.1-0.3,0.2-0.4,0.4c-1.6,3.7-1.8,6.4-0.6,8c0.3,0.4,0.7,0.7,1,0.9
	c-0.3,0.7-0.6,1.3-0.7,1.7H0.6c-0.2,0-0.4,0.1-0.5,0.2C0,24.9,0,25.1,0,25.2c0,0.2,0.8,5.6,10.2,5.6h15.1c9.5,0,10.2-5.3,10.2-5.6
	c0-0.2,0-0.4-0.2-0.5C35.3,24.6,35.1,24.5,35,24.5z M31.3,9.9c0.2-0.2,0.2-0.7,0-0.9c-0.2-0.2-0.2-0.4-0.2-0.6
	c0-0.1,0.1-0.4,0.4-0.6c0.2-0.1,0.5-0.1,0.7,0c0.4,0.2,0.5,0.7,0.3,1c-0.1,0.3-0.1,0.6,0.1,0.8c0.2,0.2,0.5,0.3,0.8,0.2
	c0.3-0.1,0.7-0.1,1,0.3c0.1,0.2,0.1,0.5,0,0.7c-0.2,0.3-0.4,0.4-0.6,0.4c-0.2,0-0.5,0-0.6-0.2c-0.1-0.1-0.3-0.2-0.4-0.2
	c-0.2,0-0.3,0.1-0.4,0.2l-2.4,2.4c0,0,0,0,0,0c-0.1,0-0.3-0.1-0.5-0.3c-0.3-0.2-0.4-0.6-0.5-0.9L31.3,9.9z M6.1,23.4
	c0.6,0.2,1.2,0.2,1.7,0.2c0.5,0,0.9-0.1,0.9-0.1c0.3-0.1,0.6-0.4,0.5-0.7c-0.1-0.3-0.4-0.6-0.7-0.5c0,0-2.5,0.4-3.6-1.1
	c-0.9-1.1-0.7-3.2,0.4-5.9c0.5,0.5,1.2,1.4,1.6,2.6c0.5,1.3,1.7,2.1,3,2.1h1.2c0.4,0,0.6-0.3,0.6-0.6c0-0.4-0.3-0.6-0.6-0.6H10
	c-0.2,0-0.4,0-0.5-0.1c2.3-2.3,6.1-4.8,12.1-5c-1.4,1.3-2,3-2,4.1c0,0.3,0.2,0.6,0.6,0.7c0,0,0,0,0,0c0.3,0,0.6-0.3,0.6-0.6
	c0-0.2,0.4-4.9,7-5.1c0.1,0.4,0.4,0.9,0.8,1.3c0.4,0.3,0.8,0.5,1.1,0.6c-0.3,4.8-2.7,6.3-2.8,6.4c-0.3,0.2-0.4,0.6-0.2,0.9
	c0.1,0.2,0.3,0.3,0.6,0.3c0.1,0,0.2,0,0.3-0.1c0.1,0,0.9-0.5,1.7-1.8c0.8,2,0.6,3.5,0.4,4.1H5.6C5.7,24.2,5.9,23.8,6.1,23.4z
	 M25.3,29.5h-9h-6.1c-6.3,0-8.2-2.5-8.8-3.7h32.6C33.5,27.1,31.6,29.5,25.3,29.5z M14.9,5.8c0.3-0.3,0.5-0.8,0.5-1.2
	c0-0.5-0.2-0.9-0.5-1.3c-0.2-0.2-0.2-0.7,0-0.9c0.2-0.2,0.7-0.2,0.9,0c0.6,0.6,0.9,1.3,0.9,2.2c0,0.8-0.3,1.6-0.9,2.2
	c-0.7,0.7-0.7,1.8,0,2.5c0.2,0.2,0.2,0.7,0,0.9c-0.1,0.1-0.3,0.2-0.4,0.2c-0.2,0-0.3-0.1-0.4-0.2C13.7,8.9,13.7,7,14.9,5.8z
	 M19.1,3.6c0.7-0.7,0.7-1.8,0-2.5c-0.2-0.2-0.2-0.7,0-0.9c0.2-0.2,0.7-0.2,0.9,0c1.2,1.2,1.2,3.1,0,4.3c-0.3,0.3-0.5,0.8-0.5,1.2
	c0,0.5,0.2,0.9,0.5,1.3c0.2,0.2,0.2,0.7,0,0.9c-0.1,0.1-0.3,0.2-0.5,0.2c-0.2,0-0.3-0.1-0.5-0.2c-0.6-0.6-0.9-1.3-0.9-2.2
	C18.2,4.9,18.6,4.2,19.1,3.6z"/>
</svg>