<!-- Butter -->

<!-- Generator: Adobe Illustrator 22.1.0, SVG Export Plug-In  -->
<svg version="1.1"
	 xmlns="http://www.w3.org/2000/svg" xmlns:xlink="http://www.w3.org/1999/xlink" xmlns:a="http://ns.adobe.com/AdobeSVGViewerExtensions/3.0/"
	 x="0px" y="0px" width="50.283" height="27.775" viewBox="0 0 13.304 7.3488" style="enable-background:new 0 0 37.7 20.8;"
	 xml:space="preserve">
            <path id="fatpath1" d="m0.3429 5.66 2.3707 0.71403v0.58138l-2.3707-0.70838zm2.5421-0.98531 2.3213 0.69462-2.3216 0.69815-2.3213-0.69815zm0.17851-1.6743 2.1403 0.66076 1.1578 2.1548-0.59161-0.20003v-0.10266c0-0.035983-0.00564-0.074437-0.016933-0.11818-0.040923-0.14958-0.15487-0.2667-0.3041-0.31186l-1.3504-0.40358zm0.45015-0.75742 2.1668 0.67346-0.40746 0.40711-2.1692-0.66958zm1.9265-0.18274 2.3703 0.70803v2.7161l-0.37183-0.11254-7.055e-4 -0.077612c-0.0010584-0.074789-0.019403-0.14746-0.053623-0.21026l-1.2083-2.2384c-0.056092-0.10442-0.14923-0.18098-0.26176-0.2159l-0.47414-0.14711zm4.9788-1.7247 2.3213 0.69357-4.7579 1.4326-2.3231-0.69321zm2.5418 3.7-4.8073 1.4478v-2.7146l4.8073-1.4475zm-6.2558 1.6948-1.1716-2.1812 0.41064-0.41099 1.1755 2.1767zm-1.2778 0.51682-2.3714 0.70874v-0.58279l2.3714-0.71297zm-5.4272-0.73378v0.65476c0 0.20073 0.12912 0.37395 0.32068 0.43074l2.4356 0.72708c0.085373 0.026459 0.17251 0.026106 0.25577 3.527e-4l2.4374-0.72743c0.18874-0.056445 0.32068-0.23319 0.32068-0.43074v-0.18909l0.61243 0.20497c0.15769 0.053623 0.34255 0.010231 0.46038-0.10725l0.40358-0.40217 0.60608 0.17992c0.085725 0.026106 0.1718 0.026459 0.25894 0l4.873-1.4676c0.18803-0.056445 0.31926-0.23319 0.31926-0.43004v-2.7831c0-0.20003-0.12876-0.37289-0.32068-0.43039l-2.4363-0.72708c-0.08432-0.026458-0.17604-0.0254-0.25647-3.5278e-4l-4.8744 1.4672c-0.18803 0.056445-0.31927 0.23319-0.31927 0.42969v0.4632l-1.4206-0.44203c-0.16475-0.050095-0.33373-0.0042333-0.45085 0.11218l-0.46249 0.46214c-0.14746 0.14746-0.17427 0.37536-0.064912 0.55351l0.90629 1.4693-0.59126-0.17568c-0.041981-0.0127-0.085373-0.01905-0.12841-0.01905-0.043039 0-0.086431 0.00635-0.12806 0.01905l-2.4356 0.72779c-0.18909 0.055739-0.32068 0.23283-0.32068 0.43004"
              style="fill:#757276;stroke-width:.35278" />
          </svg>