<!-- Broccoli -->

<!-- Generator: Adobe Illustrator 22.1.0, SVG Export Plug-In  -->
<svg version="1.1"
	 xmlns="http://www.w3.org/2000/svg" xmlns:xlink="http://www.w3.org/1999/xlink" xmlns:a="http://ns.adobe.com/AdobeSVGViewerExtensions/3.0/"
	 x="0px" y="0px" width="41.628" height="32.083" viewBox="0 0 11.014 8.4885" style="enable-background:new 0 0 31.2 24.1;"
	 xml:space="preserve">

            <path id="fiberpath1" d="m5.01 5.8c0.17956 0.13688 0.3549 0.16722 0.53905 0.19262 0.00176 6e-3 0.014817 0.041628 0.019756 0.053623-0.25047 0.013053-0.63818 0.040217-1.0488 0.071262l0.49036-0.3175zm-0.77188-1.0379c0.065617 0.050095 0.13511 0.093487 0.20779 0.13018-0.11853 0.0508-0.26388 0.11042-0.40534 0.16651 0.037395-0.055034 0.073378-0.10971 0.1083-0.16263 0.030692-0.046214 0.060678-0.091723 0.089253-0.13406m4.4203 2.6092c-0.069498 0.018345-0.1397 0.030339-0.2092 0.035631-0.10971 0.00247-0.16969 0.059267-0.20214 0.11077-0.069498 0.099484-0.15769 0.18345-0.26035 0.25012-0.44133 0.2861-1.0319 0.16016-1.318-0.28187-0.085373-0.13123-0.13088-0.29704-0.13617-0.49319 7.055e-4 -0.10125 0.018344-0.32914 0.035984-0.39511 0.024342-0.092076-0.030692-0.18697-0.12241-0.21061-0.091723-0.024342-0.18627 0.030339-0.21026 0.12206-0.019756 0.071614-0.032103 0.19685-0.039511 0.30586-0.49566-0.013758-1.2054 0.00741-2.0147 0.15663-1.1109 0.20461-2.1241 0.59408-3.0117 1.1585l-0.79764-1.2301c1.1522-0.74966 2.5926-1.8045 3.4004-2.8353 0.035984 0.12982 0.091017 0.25612 0.16722 0.37395 0.015875 0.025047 0.033867 0.049389 0.051859 0.074084-0.041628 0.05962-0.085373 0.12559-0.13018 0.19332-0.13653 0.20602-0.29069 0.43921-0.45156 0.6022-0.056798 0.057856-0.066675 0.14781-0.022225 0.2159 0.00106 0.00247 0.00282 0.00459 0.00423 0.00706 0.075848 0.10442 0.19121 0.066323 0.2353 0.051506 0.026108-0.00882 0.062798-0.02223 0.10866-0.038811 0.092076-0.033514 0.21132-0.079022 0.3362-0.127 0.10725-0.042334 0.32562-0.12841 0.5073-0.20708 0.033514 0.093487 0.078317 0.18345 0.13265 0.26776 0.015522 0.024695 0.032808 0.049036 0.0508 0.07232l-0.99978 0.6477c-0.06597 0.043039-0.094545 0.12488-0.069145 0.20003 0.00423 0.013053 0.010583 0.026811 0.018697 0.037748 0.033514 0.052917 0.093487 0.083256 0.15805 0.078317 0.68122-0.054681 1.802-0.13829 1.9262-0.13229 0.045861 0.00529 0.10231-0.018697 0.13335-0.038806 0.075495-0.049036 0.10231-0.1584 0.0508-0.23777-0.041274-0.064206-0.075494-0.1337-0.10089-0.20638-0.0098779-0.028928-0.017992-0.056092-0.024695-0.082903-0.016228-0.065617-0.074437-0.13758-0.16616-0.15064-0.021872-0.00318-0.041628-6e-3 -0.062795-0.00882-0.17745-0.024342-0.29457-0.04057-0.41522-0.13511-0.081845-0.064912-0.15311-0.14217-0.21061-0.23037-0.068086-0.10513-0.11395-0.2219-0.13653-0.34396-3.528e-4 -0.00529-0.00176-0.011289-0.00353-0.016933-6e-3 -0.039511-0.010936-0.079728-0.011995-0.1203-3.527e-4 -7.056e-4 0-0.00176 0-0.00212-0.00423-0.081489-0.05362-0.14711-0.12806-0.17251-0.1203-0.040217-0.23072-0.10442-0.32773-0.19156-0.062089-0.055034-0.11748-0.11959-0.16369-0.19156-0.13018-0.20038-0.17957-0.43321-0.14464-0.65793 0.00106-0.00388 0.00176-0.00741 0.00212-0.010936 0.00847-0.051859 0.021872-0.10336 0.039511-0.15381l7.056e-4 -0.00247c0.017636-0.049389 0.053972-0.15311-0.048334-0.26635-0.014464-0.015875-0.029634-0.037395-0.040217-0.054681-0.096309-0.14923-0.11712-0.33479-0.057503-0.50836 0.029634-0.082903 0.021872-0.1524-0.025047-0.23142-0.26705-0.44133-0.13511-1.0075 0.29916-1.2894 0.30657-0.19826 0.68651-0.21449 0.97014-0.039511 0.070909 0.042686 0.13476 0.032809 0.16686 0.023636 0.060325-0.018345 0.10795-0.063148 0.14111-0.133 0.083962-0.17851 0.2025-0.31891 0.35419-0.41734 0.41169-0.26635 0.95392-0.17992 1.2612 0.20214 0.029634 0.037748 0.073731 0.060678 0.12171 0.0635 0.28505 0.020461 0.53693 0.19544 0.65758 0.45579 0.047625 0.10231 0.13088 0.15805 0.24659 0.1651 0.53129 0.03175 0.97438 0.37818 1.1031 0.86149 0.042334 0.16228 0.050447 0.32703 0.02152 0.49107-0.015875 0.097015 0.023636 0.22613 0.18697 0.27129 0.39582 0.10936 0.70697 0.42334 0.81245 0.81986 0.04763 0.18239 0.05151 0.3676 0.01058 0.55069-3.51e-4 0.00141-7.05e-4 0.00282-0.0011 0.00353-0.01517 0.075495-0.02011 0.17251 0.07691 0.25718 0.12524 0.11606 0.21449 0.26529 0.25894 0.43145 0.12806 0.48543-0.16157 0.98461-0.64735 1.1134-0.083962 0.022225-0.17075 0.032456-0.25612 0.029986-0.11783-0.00494-0.21273 0.069498-0.23107 0.17992-3.528e-4 0.00176-3.528e-4 0.00318-3.528e-4 0.00388-0.065224 0.4639-0.3986 0.84103-0.85051 0.96097m1.1719-0.80187c0.085373-0.00459 0.1711-0.017992 0.254-0.040217 0.66852-0.1771 1.0689-0.86537 0.89148-1.5339-0.05645-0.21449-0.16828-0.40852-0.3235-0.5641 0.04445-0.22366 0.03775-0.45791-0.02117-0.6791-0.13017-0.4886-0.50094-0.88124-0.97931-1.0411 0.019756-0.18168 6e-3 -0.36266-0.041628-0.54116-0.16404-0.61807-0.71861-1.0633-1.3854-1.1155-0.16863-0.33444-0.48931-0.5641-0.85584-0.61419-0.42475-0.47237-1.1292-0.56903-1.669-0.21943-0.17427 0.11324-0.31644 0.26529-0.42404 0.45332-0.37571-0.16828-0.83468-0.12947-1.2079 0.11254-0.2854 0.1845-0.48331 0.46779-0.55986 0.79728-0.073731 0.31997-0.024695 0.64947 0.13688 0.9324-0.081845 0.26564-0.044097 0.54716 0.10478 0.77612 0.010583 0.016581 0.023636 0.036689 0.039159 0.05715-0.016228 0.049036-0.028575 0.099837-0.0381 0.15028-0.6911 1.1091-2.3474 2.3216-3.6202 3.1464-0.12912 0.083962-0.16616 0.25612-0.082551 0.38559l0.86854 1.3402c0.083962 0.12947 0.25612 0.16616 0.38524 0.08255 1.8789-1.2174 3.9536-1.3219 4.8987-1.2947 0.023989 0.19438 0.083609 0.36654 0.17886 0.51329 0.38912 0.60043 1.1949 0.77259 1.7953 0.38347 0.12876-0.083609 0.23989-0.18768 0.33161-0.30974 0.080787-0.00741 0.16016-0.021872 0.23989-0.043039 0.54928-0.14605 0.96415-0.58456 1.0841-1.1345"
              style="fill:#757276;stroke-width:.35278" />
            <path id="fiberpath2" d="m8.83 5.51c-0.05327-0.12947-0.13441-0.24412-0.23636-0.3362 0.38277-0.3489 0.5207-0.91476 0.31644-1.409-0.24942-0.60431-0.93063-0.91829-1.5515-0.7165-0.090312 0.029634-0.1397 0.127-0.11007 0.21731 0.029281 0.091017 0.12665 0.14005 0.21731 0.11077 0.44979-0.14711 0.9451 0.081492 1.1254 0.51929 0.17286 0.41875 0.00953 0.907-0.381 1.1352-0.054681 0.032456-0.087137 0.092075-0.08502 0.15558 0.00282 0.0635 0.040217 0.12065 0.097367 0.14852 0.13088 0.062795 0.23354 0.17145 0.28928 0.30586 0.12453 0.30163-0.019403 0.64806-0.32068 0.77259-0.066675 0.027517-0.13511 0.042686-0.20638 0.04445-0.094898 0.00317-0.16863 0.082903-0.16651 0.1778 0.00141 0.032808 0.011289 0.062442 0.027517 0.087842 0.032103 0.049036 0.087842 0.080787 0.15028 0.07867 0.11183-0.00388 0.22225-0.027517 0.32667-0.070203 0.23107-0.096309 0.41134-0.27552 0.50694-0.50553 0.095603-0.23142 0.095956-0.48578 3.528e-4 -0.7165"
              style="fill:#757276;stroke-width:.35278" />
            <path id="fiberpath3" d="m6.56 3.52c0.056798-0.33126-0.018697-0.66464-0.21378-0.93945-0.19473-0.27376-0.48437-0.45614-0.81563-0.51259-0.30515-0.051153-0.61842 0.010936-0.88019 0.17498-0.080787 0.050447-0.10478 0.15699-0.053975 0.23742 3.528e-4 7.056e-4 0.00106 0.00141 0.00141 0.00247 0.050448 0.078317 0.15593 0.10195 0.23566 0.051859 0.1905-0.11959 0.41769-0.1644 0.63959-0.12665 0.2406 0.04057 0.45085 0.17251 0.59196 0.37183 0.14076 0.19932 0.1965 0.44133 0.15593 0.68263-0.018697 0.10866-0.056445 0.21167-0.11042 0.30657-0.048331 0.081845-0.020461 0.18733 0.061384 0.2353 0.082903 0.047978 0.18838 0.020109 0.23601-0.062089 0.075495-0.13053 0.12735-0.27235 0.15205-0.42228"
              style="fill:#757276;stroke-width:.35278" />
          </svg>